<?xml version="1.0" encoding="UTF-8"?><svg id="a" xmlns="http://www.w3.org/2000/svg" viewBox="0 0 800 280"><path d="m491.6,204.19c1.77-2.78,3.94-5.13,6.95-6.61,1.46-.72,2.97-1.34,4.58-1.57,1.01-.14.92-.44.41-1.12-4.14-5.54-5.49-11.76-4.26-18.52.8-4.39,3.04-7.97,6.46-10.82.11-.12.21-.23.32-.35-.21-.13-.41-.12-.56.1-3.79,1.23-7.23.35-10.19-2.09-4.54-3.74-7.59-8.44-8.05-14.46-.3-3.93,1.47-6.93,4.79-8.97.96-.59,1.19-.97.35-1.87-.73-.79-1.1-2.23-1.93-2.52-.72-.26-1.84.75-2.83,1.1-7.1,2.5-14.12,1.64-21.01-.8-12.05-4.27-21.57-12.05-29.51-21.86-6.29-7.77-10.92-16.44-13.28-26.21-1.28-5.3-1.55-10.64-.06-15.99,1.68-6.03,5.27-10.62,10.52-13.94,1.12-.71,2.04-1.48,2.86-2.61,2.62-3.59,6.36-5.53,10.7-6.31,5.85-1.05,11.52-.09,17.01,1.9,7.38,2.68,14.07,6.59,19.84,11.95,2.43,2.25,4.93,4.43,6.82,7.02,1.77-1.01,1.33-2.2.88-3.79-1.81-6.32-1.28-12.47,2.25-18.16.74-1.2,1.16-2.37,1.28-3.82.56-6.64,3.49-12.33,7.53-17.49,3.15-4.02,6.86-7.51,10.91-10.63.56-.43.89-.96,1.21-1.55,3.21-5.81,7.57-10.5,13.87-12.84,5.64-2.1,11.32-1.86,16.67,1.25.64.37,1.3.5,2.03.5,5.87-.06,11.75-.04,17.5,1.42,6.26,1.59,12.39,3.54,17.61,7.55.37.29.58.15.86-.02,9.6-5.79,23.82-1.31,29.43,9.61,4.97,9.69,2.71,20.85-5.73,27.58-.54.43-.59.65-.22,1.22,5.77,9.09,8.37,19.06,7.92,29.78-.41,9.9-4.05,18.64-10.11,26.42-1.65,2.11-3.33,4.2-5.42,5.88-.76.61-.25.92.08,1.33,6.28,7.77,11.33,16.27,15.15,25.49,4.37,10.56,7.35,21.47,7.39,33.1.92-.1,1.42-.69,2-1.12,5.61-4.19,11.66-7.48,18.63-8.69,8.37-1.45,16.03.21,22.65,5.77,5.83,4.91,9.88,15.19,2.7,24.68-3.98,5.26-9.35,8.45-15.26,10.98-5.07,2.17-10.37,3.56-15.69,4.88-.18.02-.36.05-.54.07-.15-.1-.26-.07-.35.08-.1,0-.18.02-.26.08-2.02.19-3.92.91-5.95,1.18-6.49.86-12.98,1.4-19.52,1.4-.94,0-1.59.3-2.22,1.01-3.89,4.39-8.73,7.36-14.28,9.15-7.31,2.35-14.78,4.13-22.26,5.88-5,1.17-9.92,2.77-15.19,2.36-3.75-.29-7.55-.21-11.15-1.53-1.99-.73-3.31-2.06-3.75-4.29-.52-2.62-.12-5.03,1.1-7.33.42-.79.54-1.18-.56-1.44-3.15-.75-6.28-1.62-9.26-2.94-.53-.24-1.06-.22-1.66-.12-7.66,1.3-15.17,3.41-22.91,4.22-4.88.51-9.73.1-14.44-1.34-1.99-.6-3.64-1.69-4.13-3.94-.2-2.54.17-4.99,1.28-7.31Zm109.14,9.62l-.03.03c.19,0,.32-.09.36-.29l-.04.05c.19-.13.38-.25.57-.38,3.22-2.4,5.89-5.31,7.99-8.74.23-.17.37-.4.37-.69l-.04.05c.19-.05.28-.17.28-.36l-.02.03c.3-.09.24-.38.31-.6h0c.63-.47.91-1.2,1.25-1.87,4.36-8.41,6.51-17.37,6.56-26.82.04-8.13-1.13-16.07-3.86-23.77-.7-1.96-1.12-4.03-1.87-5.97-2.1-5.41-4.53-10.64-7.48-15.67-2.62-4.45-5.46-8.71-8.73-12.69-.27-.32-.51-.94-1.11-.39-.37.09-.81.07-1.08.27-1.86,1.39-4.02,1.54-6.42,1.71.5-.47.81-.84,1.19-1.1,3.06-2.04,5.74-4.53,8.29-7.15,1.12-1.15,2.48-2.16,3.17-3.7,1.78-1.94,3.3-4.05,4.52-6.38.58-1.02,1.23-2.02,1.73-3.08,4.38-9.18,5.43-18.74,3.28-28.69-1.17-5.41-3.11-10.49-5.9-15.26-.33-.56-.57-1.36-1.42-.53-2.4.53-4.72.16-6.98-.71-.43-.16-.97-.22-.93-.88,10.17-.09,17.6-9.49,17.06-18.66.02-3.79-1.06-7.23-3.31-10.29-.3-.65-.78-1.14-1.41-1.48-.25-.39-.44-.84-.76-1.16-7.69-7.54-20.98-7.38-28.4,3.42v.02c-.57-.48.19-1.1-.14-1.73-.24.44-.42.77-.6,1.09,0-1.01.34-1.92.84-2.77.53-.88,1.06-1.76,1.59-2.64q1.27-1.09-.06-1.91c-.33-.2-.66-.39-1-.56-13.92-6.98-28.4-8.4-43.45-4.41-6.87,1.82-13,5.12-18.66,9.28-2.85,2.1-5.37,4.65-7.77,7.28-2.1,2.31-3.94,4.81-5.61,7.48,1.35-.91,2.77-1.47,4.39-1.41,2.88,1.68,4.04,4.68,2.98,7.9-1.51-2.14-3.18-3.99-5.82-4.56-.85-.24-1.79-1.05-2.48.17-.81,1.42-1.56,2.88-1.93,4.5-.68,1.26-.86,2.61-.8,4.01-.05.06-.1.12-.15.18.04.02.08.04.12.06.03-.07.06-.15.08-.22.06-.06.1-.14.12-.23.48.1.79-.21,1.13-.45,1.39-1.02,2.98-1.57,4.66-1.87.51-.09,1.02-.14,1.43-.51,2.48,1.26,3.53,3.48,4,6.04.36,1.93.21,3.89.09,5.84-.26,4.41-.83,8.81-.91,13.23-.33.6-.96.57-1.5.69-1.61.34-3.11.94-4.53,1.76-1.95,1.11-3.23,2.68-3.29,5.03-.76.48-.43,1.17-.32,1.78.27,1.44,1.24,2.51,2.08,3.64,3.18,4.27,7.68,5.26,12.34,2.7,3.88-2.13,6.63-5.29,8.31-9.38.18,1.11-.04,2.15-.43,3.2-.62,1.66-1.59,3.12-2.48,4.63-.31.12-.47.33-.46.67-.08.03-.12.08-.11.17-2.51,2.3-5.1,4.46-8.7,4.81-.67.07-.5.58-.42.99.21,1.24.77,2.35,1.33,3.46,2.78,5.49,7.07,9.67,11.81,13.42,2.51,1.98,5.03,3.99,7.85,5.6-1.78-.35-3.49-.82-5.2-1.32-.71-.21-.99-.17-.98.73.04,2.79-1.57,4.42-4.35,4.6-3.03.2-5.64-1.39-6.79-4.24-.62-1.54-1.09-3.13-1.63-4.72-1.21.94-2.93,1.11-3.76,1.93-.74.74-.15,2.72-.39,4.11-.18,1.06.2,1.49,1.01,2.02,6.43,4.18,13.72,6.15,20.95,8.3,3.73,1.11,7.55,1.79,11.38,2.53-3.27.26-6.52.29-9.77-.12-.4-.05-.87-.32-1.05.32-.65,2.28-1.72,4.44-2.07,6.81-.69,1-.76,2.23-1.21,3.31-.13.31,0,.51.17.76,1.54,2.1,3.37,3.32,6.14,2.41,1.43-.47,2.99-.48,4.4-1.1,4.13-.89,7.9-2.8,11.86-4.19.56.23,1.1,0,1.66,0,1.4-.03,2.74-.71,4.16-.35-7.33,4.62-14.93,8.47-24.13,8.61.45.35.7.55.95.74,0,.32-.05.54-.47.37-.78-.31-1.61-.52-2.37-.87-.93-.43-1.21-.14-1.06.79-2.59-3.52-5.35-6.86-9.28-9.01-5.68-3.11-12.37-1.76-15.79,3.19-1.17,1.28-1.84,2.79-2.02,4.52-.04.15-.07.29-.11.44-.42,1.28.07,2.21,1.17,2.86,1.12.66,1.93.19,2.69-.71.48-.57,1.09-1.05,1.71-1.48.48-.33,1.09-1.09,1.51-.75.65.53-.56.93-.48,1.55l-.05.06c-.23.06-.34.22-.33.46-.09.13-.17.25-.26.38-.14.01-.2.08-.13.22-.06.1-.13.19-.19.29-.16.03-.23.13-.19.29-.07.07-.11.15-.12.24-.31.12-.44.33-.34.66-.06.17-.13.34-.19.51-.15.08-.2.19-.1.34-.05.17-.09.34-.14.5-.39.77-.43,1.54.01,2.31.08.37.16.75.23,1.12.21.9.91,1.43,1.56,1.95.73.59,1.39.72,1.89-.4.61-1.38,1.64-2.45,2.97-3.2.31-.18.7-.68,1.05-.01-.67.97-1.65,1.76-1.84,3.02-.32.27-.52.58-.33,1.01-.05.45-.09.9-.14,1.35-.14,1.8.5,3.15,1.75,3.72,1.44.65,2.47.34,3.89-1.17.2-.21.39-.42.59-.62.91-.91,1.86-.97,2.73,0,2.14,2.42,4.89,3.14,7.98,3.05.9-.03,1.84-.26,2.93.08-1.44,1.14-.52,1.75.33,2.3.47.31,1.01.53,1.55.72,8.85,3.2,17.68,2.79,26.43-.29,6.32-2.23,11.86-5.82,16.88-10.23.36-.31.66-.81,1.33-.66,0,.71-.42,1.12-.72,1.59-1.77,2.79-4.07,5.15-6.41,7.45-.09.04-.18.06-.26.12-9.48,7.6-20.11,10.24-32.01,7.46-.49-.11-1-.18-1.8-.32,1.19,1.38,1.13,2.82,1.12,4.25-1.23,4.68-4.3,7.74-8.61,9.66-3.77,1.68-7.19,1.3-10.13-1.87-1.2-1.29-2.41-2.57-3.44-4-.31-.43-.6-.92-1.3-1.25.01,2.44-.24,4.7.24,6.95-.01,3.53.77,6.94,2.14,10.14,5.48,12.82,15.43,20.1,28.9,22.88.56.12,1.01.05,1.43-.37,2.05-2,4.47-3.4,7.17-4.31.8-.27.72-.58.39-1.21-1.02-1.95-1.84-3.97-2.34-6.12-.51-2.19-.61-4.43-.97-6.64-.07-5.56,1.14-10.81,4.01-15.59,3.79-6.31,9.51-10.16,16.33-12.54.2.04.34-.02.42-.22l.08.02.07-.04c.37-.04.76-.04,1.12-.12,4.89-1.14,9.71-.82,14.46.7,2.73.88,5.24,2.21,7.51,3.97-.64-.16-1.28-.33-1.92-.49-3.97-1.24-8.05-1.74-12.2-1.72-9.07.05-16.42,3.64-21.95,10.8-2.16,2.8-3.33,6.06-3.59,9.62-.09.22-.23.43-.26.66-.58,5.86.13,11.49,2.97,16.76.5.92,1.1.8,1.9.67,5.47-.89,10.85-.51,15.99,1.63,2.66,1.11,5.35,2.31,7.14,4.79h.01c-.57-.18-1.15-.35-1.72-.5-.78-.21-.2.35-.29.52-2.09-.72-4.15-1.54-6.27-2.14-3.42-.97-6.89-1.61-10.48-1.15-2.5-.15-4.96.14-7.37.75-3.84.96-7.14,2.83-9.47,6.17-1.46,1.67-2.11,3.7-2.43,5.83-.22,1.49.57,2.56,1.98,3.07.97.34,1.52.18,1.67-.96.27-2.08,1.07-3.94,2.5-5.51.27-.3.43-.95,1.08-.53-.28.69-.56,1.38-.84,2.07-1.03,1.01-1.19,2.34-1.26,3.67-.09,1.75.43,2.3,2.16,2.49,2.42.26,2.79-.01,3.2-1.91.46-2.1,1.2-4.07,3.05-5.4.33.3.07.53-.02.84-.22.7-.91,1.21-.82,2.03-1.21,1.17-1.49,2.78-.88,4.1.57,1.23,2.13.57,3.28.57.23,0,.47-.08.7-.14,4.4-1.07,8.81-2.1,13.2-3.21,4.43-1.12,8.84-2.33,13.26-3.49,2.46-.34,4.76-1.2,6.98-2.29.17-.07.34-.15.51-.22,1.15-.43,2.29-.88,3.23-1.71l-.02.03c.46-.08.82-.32,1.13-.64,0,0-.01,0-.01,0,.11-.1.21-.2.32-.3l-.04.05.58-.35s-.02.02-.02.02c.11-.1.22-.19.33-.29Zm-75.54-39.41c.1-.1.19-.19.29-.29,2.63-2.6,5.48-4.88,9.11-5.98-3.21-.37-7.04,2-9.45,5.71-.07.1-.14.21-.2.31-.13.14-.24.3-.04.45.03.02.2-.12.3-.19Zm-23.61-47.34c-.1-.03-.2-.06-.3-.09l.03.02c-1.72-.66-3.25-.34-4.64.84-.52.18-.92.5-1.24.94-.91.84-1.69,1.79-2.24,2.9-.43.88.19,1.51.7,2.11.22.26.62.4.84,0,.59-1.06,1.74-1.77,1.93-3.07.76.01,1.03-.68,1.51-1.07.57-.4,1.13-.81,1.7-1.21.72-.14,1.45-.25,1.81-1.03.11-.16.27-.34-.11-.34Zm-4.3,18.89c.54.1,1.02-.17,1.5-.33.47-.15,1.23-.08,1.28-.66.05-.6-.43-1.1-1.08-1.29-1.28-.91-2.62-1.57-4.25-.93-3.39.51-5.35,4.45-3.58,7.37.22-.59.63-1.03,1.09-1.33,1.31-.86,2.68-1.62,4.02-2.43.34-.13.68-.27,1.02-.4Zm-3.13-20.68s-.02.03-.02.03c2.5-1.42,4.83-3.06,6.51-5.46.66-.2.92-.81,1.24-1.31,2.67-4.24,3.24-8.88,2.55-13.75-.06-.35.18-.77-.27-1.01h.01c.02-3.13-.85-6.11-1.87-9.03-2.77-7.92-7.09-14.95-12.45-21.37-8.64-10.36-19.06-17.9-32.48-20.76-3.99-.85-7.93-.82-11.77.71-.4.16-.97.1-1.02.74-3.97,1.49-6.45,4.8-9.33,7.62-1.44.97-2.96,1.85-3.89,3.41h0c-.13.03-.26.07-.39.1-2.09,2.14-3.33,4.75-4.14,7.57-1.4,4.91-1.07,9.83.13,14.71,2.74,11.18,8.65,20.62,16.4,28.93,5.61,6.01,12.2,10.76,19.69,14.29,5.78,2.73,11.75,4.18,18.14,3.72,4.2-.31,7.79-1.78,10.31-5.33.79-1.11,1.55-2.25,2.32-3.37.11-.15.21-.29.32-.44Zm20.4-22.75c.21.73.35,1.48.63,2.18.52,1.27.67,2.68,1.41,3.86.84,1.34,2.92,2.1,4.25,1.43,1.45-.73.79-2.04.67-3.16-.05-.46-.24-.91-.37-1.36.01-.77-.29-1.37-.89-1.85-1.74-1.39-3.5-2.77-5.15-4.51-.29,1.23-.9,2.24-.55,3.41Zm-8.69,50.78c-.39-.4-.91-.51-1.43-.55-2.79-.22-5.4.25-7.68,1.98-.97.8-2.28,1.48-1.66,3.08.38.98,1.06,1.79,1.98,2.38.56.36,1.01.44,1.53-.03,1.43-1.3,3.2-2.06,4.86-2.98.95-.53,1.98-.97,2.74-1.79.77-.83.89-1.57-.34-2.09Zm-7-1.41c1.52-.13,2.91-.76,4.34-1.2.92-.28.83-1,.3-1.68-.27-.72-.87-1.1-1.52-1.4-2.52-1.15-7.59.26-9.26,2.56-.51.07-.74.46-.78.87-.18,1.9.23,3.62,1.72,5.22.28-1.11,1.05-1.6,1.71-2.2.58-.53,1.42-.76,1.78-1.54.57-.21,1.14-.42,1.71-.63Zm1.92-71.71c-.47-.76-1-1.49-1.4-2.29-.96-1.92-2.09-3.84-1.75-6.09.12-.82.03-1.49-.3-2.18-.51-1.48-1.01-2.97-1.52-4.45-.89-4.73-.29-9.15,3-12.87,3.19-3.61,7.31-3.65,10.71-.25.24.4.48.79.77,1.26.25-.53.22-.93.02-1.32-.04-.4-.09-.8-.13-1.2-.15-2.1-.94-3.98-2.13-5.67-1.41-2.01-3.46-2.47-5.46-1.36-2.73,1.28-4.38,3.6-5.74,6.13-2.61,4.87-3.12,10-1.55,15.31.34,1.54.88,3.02,1.49,4.48.31.75.34,1.14-.75,1.21-1.75.1-2.3,1.36-1.27,2.68,2.55,3.27,4.78,6.75,6.8,10.36,2.65,4.72,4.53,9.73,5.78,14.98.15.89.38,1.77.43,2.66.08,1.2.63,1.08,1.36.59,1.83-1.21,2.64-3.02,3.09-5.1.63-2.95-.32-5.55-1.63-8.08-.71-1.37-.63-3.23-2.86-3.63-2.74-.49-4.55-2.62-6.47-4.47l-.19-.31c0-.21-.1-.34-.3-.4Zm9.96,91.79c.12-.64.14-1.32.38-1.92.56-1.43.09-2.43-1.12-3.2-.33-.69-.72-.24-1.01,0-2.69,2.2-4.86,4.76-5.61,8.29-.45.42-.55.99-.65,1.55-1.28,7,1.14,12.9,5.46,18.22.26.32.59.49.99.49,1.71.02,3.43.02,5.14.03.71,0,.8-.28.5-.88-.53-1.06-1.06-2.13-1.51-3.22-1.59-3.81-2.2-7.85-2.68-11.91-.04-2.09-.21-4.19,0-6.28.2-.37.2-.76.11-1.16Zm151.01-2.01c-1.12-.66-2.19-1.46-3.38-1.97-6.27-2.7-12.66-2.3-19.01-.36-6.12,1.86-11.2,5.61-16.31,9.3-.32.23-.37.52-.39.86-.05,1.05-.12,2.09-.18,3.14-.52,3.54-.97,7.09-1.96,10.54-.09.17-.2.33-.26.5-1.49,5.05-3.26,9.97-6.44,14.26-.17.23-.38.51-.17.77.21.27.53.05.8.04,6.64-.26,13.2-1.13,19.71-2.42,8.22-1.64,16.21-4.01,23.57-8.14,3.68-2.06,6.81-4.74,8.81-8.54,2.92-5.56,1.56-10.59-1.23-14.32-.99-1.41-1.99-2.82-3.58-3.64Zm-163.57,38.34c-.16.79-.36,1.57-.48,2.36-.15.94.33,1.6,1.19,1.84.95.26,1.95.35,2.89-.08.08-.04.11-.26.11-.4.05-2.27,1.08-4.11,2.57-5.74.66-.48,1.27-1.07,2.38-1.09-1.12,1.23-2.26,2.23-2.73,3.69-.61.55-.73,1.32-.84,2.06-.24,1.5.21,2.05,1.71,2.04,1.09,0,2.2-.05,3.27-.24,5.39-.94,10.77-1.93,16.15-2.92,1.04-.19,2.12-.21,3.3-.78-3.81-2.46-6.52-5.77-9.27-9.06-.21-.25-.49-.55-.77-.59-2.33-.36-4.64-1.04-7.04-.54l-.96-.13c-.13,0-.26-.02-.39-.03-.84.07-1.68.18-2.52.2-4.3.07-7.94,1.56-10.77,4.87-1.12,1.31-1.84,2.77-1.94,4.51-.64.45-.38,1.12-.35,1.68.05,1.21,1.01,1.51,1.97,1.64.99.14.82-.89.87-1.3.12-1.03.67-1.93.75-2.95.93-.62,1.29-1.93,2.86-2.38-.88,1.26-1.48,2.26-1.95,3.33Zm3.95-84.88c1.27.37,2.14,1.12,2.87,2.08.53.7.67,1.68,1.57,2.12,1.1.54,1.71-.53,2.58-.77,3.39-.96,6.67-.73,9.92.54.52.2.96.5,1.52-.08,1.37-1.42,2.82-2.76,4.26-4.16-.27-.19-.34-.27-.43-.29-5.81-1.56-11.47-3.46-16.52-6.84-.42-.28-.63-.25-.81.28-.94,2.81-2.56,5.18-4.96,7.13Zm31.25,42.19c-1.24-1.9-2.79-3.32-4.15-4.91-.32-.38-.73-.4-1.17-.36-2.21.17-4.29-.31-6.15-1.5-1.15-.74-2.09-.84-3.03.3-.57.69-1.93.7-2.04,1.59-.11.89,1.02,1.4,1.58,2.09,1.96,2.39,3.98,4.74,5.99,7.1.29.34.5.86,1.11.33,2.3-2.03,4.84-3.66,7.86-4.63Zm-30.03-3c2.13.1,3.86-.73,5.23-2.37.37-.45.83-.98.61-1.48-.27-.61-.95-.77-1.68-.81-3.09-.17-5.58,1.27-8.03,2.86-.71.46-.38.67.15.92,1.18.56,2.4.89,3.72.88Zm3.45-106.6c0-1.68-1.16-2.97-2.64-2.95-1.66.02-3.08,1.27-3.11,2.75-.03,1.55,1.58,3.22,3.08,3.19,1.48-.03,2.67-1.36,2.67-2.98Zm17.29-46.8c4.69-1.88,9.28-4.01,14.26-5.09-5.7-.92-10.17,1.57-14.26,5.09Zm-19.71,120.74c-3.52.37-5.44,2.45-7.26,4.68-.2.24-.3.55-.11.78.62.78.84,1.9,1.89,2.45,1.04-3.08,2.74-5.6,5.49-7.91Zm22.6-3.53c-.12-.1-.23-.2-.35-.31-.6.65-1.2,1.31-1.81,1.95-1.72,1.78-1.99,1.44.14,3.23.06.05.18.04.3.06.57-1.64,1.15-3.29,1.72-4.94Zm-2.37,48.5s-.05.07-.04.09c.05.13.11.13.16,0,0-.02-.02-.07-.04-.09-.01-.01-.05,0-.08,0Z" style="fill:#190639; stroke-width:0px;"/><path d="m637.12,209.06c.18-.02.36-.05.54-.07,2.59,1.5,5.46,2.5,7.83,4.4.87.7,1.6,1.51,2.22,2.41,1.04,1.51.87,3.29-.41,4.73-2.29,2.57-5.32,4.03-8.44,5.24-8.68,3.35-17.78,5-26.9,6.61-14.73,2.59-29.58,3.91-44.52,4.41-11.79.4-23.57.39-35.35-.2-9.38-.47-18.73-1.38-28.03-2.72-9.4-1.35-18.73-3.05-27.85-5.72-3.8-1.11-7.53-2.46-10.9-4.6-.92-.59-1.8-1.25-2.62-1.98-2.56-2.27-2.62-4.75-.15-7.13,2.06-1.98,4.57-3.27,7.18-4.34,7.05-2.88,14.38-4.74,21.89-5.91-1.11,2.32-1.47,4.76-1.28,7.31-.73,1.47-.35,2.48,1.31,3.46,2.21,1.3,4.68,1.92,7.13,2.46,6.53,1.43,12.94,3.38,19.61,4.26,4.56.6,9.09,1.4,13.67,1.85,2.83.27,5.67.57,8.5.83.56.05.93.06.55.83-.6,1.21-.2,2.24.94,2.93,1.26.76,2.6,1.35,4.05,1.71,2.87.71,5.78,1,8.73,1.22,3.91.29,7.77.3,11.64-.44,3.63-.7,7.28-1.35,10.93-1.9,4.55-.68,9.13-1.16,13.67-1.86,4.08-.62,8.14-1.33,12.2-2.11,9.25-1.78,18.47-3.64,27.32-6.95,2.09-.78,4.1-1.78,5.91-3.08,1.72-1.23,1.86-2.48.6-4.11-.33-.42-.72-.77-.59-1.37.08-.05.17-.08.26-.08.2.3.28.16.35-.08Z" style="fill:#0ad3fc; stroke-width:0px;"/><path d="m504.58,35.15c2.64.57,4.31,2.42,5.82,4.56,1.06-3.23-.1-6.23-2.98-7.9.11-.52.39-.94.72-1.37,1.94-2.45,4.34-4.4,6.75-6.36,5.73-4.66,12.08-8.2,19.17-10.25,11.61-3.35,23.36-3.96,35.18-1.08,3.52.85,6.99,1.88,10.32,3.3-.53.88-1.06,1.75-1.59,2.64-.51.85-.85,1.76-.85,2.77-.85,2.73-2.32,5.26-2.5,8.23,1.65-2.84,3.58-5.44,5.94-7.72,2.43-2.36,5.25-4.06,8.4-5.25.64.04,1.21-.11,1.69-.55l.3-.05c2.31-.16,4.61-.37,6.93-.16.36.05.72.11,1.09.16.31.36.72.32,1.12.29.29.1.59.2.88.3.22.28.51.31.83.26.28.13.56.25.83.38.11.06.22.12.33.18h.02c.09.26.28.33.53.3.08.05.16.09.24.13l.27.22c.39.3.77.6,1.16.9.09.08.18.15.28.23,0,0,.02.02.02.02.38.56.71,1.18,1.43,1.39.05.08.11.15.18.21-.05.17.03.24.2.23.05.07.11.13.18.19.07.09.14.18.21.26,0,0,.08.07.08.07.02.14,0,.31.08.41,2.08,2.64,2.94,5.75,3.44,8.99.04.27.18.42.44.48.54,9.17-6.89,18.58-17.06,18.66-.34-.02-.67-.39-1.07-.03,1.52,2.07,3.05,4.11,4.52,6.2,2.93,4.18,4.62,8.85,5.07,13.91.39,4.45-1.02,8.45-3.79,11.92-1.68,2.1-3.33,4.25-5.56,5.84-.51-.88-.47-2.04-1.44-2.67-.03-.09-.07-.17-.11-.25-.07-.67-.35-1.21-1-1.49-.04-.08-.08-.16-.13-.24.02-.36-.17-.53-.5-.58-.77-.78-1.54-1.55-2.3-2.33-.1-.5-.37-.78-.91-.72-.07-.06-.15-.11-.23-.15-.23-.71-.79-.96-1.47-1.04-.08-.05-.16-.09-.24-.12-.2-.55-.74-.74-1.17-.98-3.3-1.84-6.84-2.81-10.62-2.93-.59-.02-1.28.2-1.6-.58.99-.96,2.11-1.82,2.96-2.89,5.77-7.24,6.45-15.2,2.9-23.54-4.74-11.13-17.66-17.05-28.69-13.23-14.63,5.07-19.81,21.22-14.38,34.81,1.19,2.97,3.48,5.08,5.79,7.16-.45.04-.82-.17-1.2-.37-2.3-1.25-4.58-2.52-6.91-3.71-7.13-3.64-14.4-6.83-22.68-6.35.08-4.43.64-8.82.91-13.23.12-1.95.27-3.9-.09-5.84-.48-2.56-1.53-4.79-4-6.04-.42-.55-1.03-.54-1.64-.6-1.81-.17-3.34.8-5,1.21.09-.51.17-1.02.26-1.53,0,0,.04-.03.04-.03.17.04.26-.03.25-.2l.07-.07c.16.01.23-.07.21-.23,1.21-1.4,2.42-2.79,3.63-4.19Zm60.02-6.13l.04.04-.03-.03c-7.39-5.68-19.34-3.54-23.28,4.66.72-.31,1.32-.56,1.91-.83,2.65-1.19,5.3-2.34,8.16-2.98,4.36-.98,8.75-1.26,13.2-.85Zm22.35,11.46c-.07.42-.12.84.27,1.15.09.29.18.57.27.86-.21.19-.11.23.1.23.48.69.27,1.86,1.45,2.05.2.43.58.55,1.01.68,1.15.36,2.33.42,3.52.5.06,1.71,1.11,1.87,2.49,1.69.64-.08,1.17-.37,1.76-.54,9-2.58,13.12-12.28,9.23-19.67-2.37-4.51-6.42-6.75-11.31-5.66-4.2.94-6.87,3.78-8.45,7.61-1.49,3.61-1.7,7.35-.35,11.1h0Z" style="fill:#0ad3fc; stroke-width:0px;"/><path d="m501.68,139.62c.04-.15.07-.29.11-.44.61-1.57,1.37-3.06,2.35-4.43.09-.06.17-.12.26-.18,1.83-.88,3.66-1.77,5.5-2.65l.61-.07c1.22.34,2.44.32,3.66.02.2.02.39.05.59.07.8.58,1.69.84,2.67.86l.31.16c.42.52.91.9,1.63.85l.07.04c0,.17.08.23.24.17.04.04.08.07.13.09-.03.16,0,.2.13.07.08.06.17.12.25.17.1.54.49.69.96.74.04.05.09.09.14.12.08.5.51.56.88.69l.03.02.28.24,1.54,1.42c0,.16.06.23.22.2.08.06.15.12.23.18.09.08.17.16.26.25l.03.03c.05.32.24.5.56.54l.03.03c.08.09.17.17.25.26,0,0,.03.03.03.03.08.08.17.17.25.25l.03.03c.05.32.23.5.54.55l.03.03c.08.09.16.17.24.26l.04.04c.08.08.17.16.25.24l1.53,1.69c.62,1.2,1.6,2.07,2.61,2.93-.45-1.26-.79-2.55-1.79-3.48-.31-.32-.44-.72-.49-1.16-.14-.93.13-1.23,1.06-.79.76.35,1.58.56,2.37.87.42.17.47-.05.47-.37.71.08,1.42.14,2.13.25,5.47.86,10.58-.27,15.45-2.79,4.99-2.57,9.15-6.3,13.86-9.83-.65.23-1,.36-1.35.47-1.72.54-3.27,1.54-5.1,1.74.14-.52.62-.73,1.01-.95,2.63-1.45,5.2-3.03,7.93-4.25,9.18-4.09,17.17-2.48,24.45,3.97,3.79,3.36,6.96,7.29,9.23,11.86,1.92,3.87,3.6,7.84,4.69,12.04.81,3.09,1.16,6.23,1.48,9.4.47,4.71.25,9.35-1.15,13.83-2.52,8.09-8.03,13.38-15.94,16.32-4.91,1.83-10,2.73-15.18,2.86-3.74.1-7.51-.3-11.11-1.45-3.03-.97-5.9-2.28-7.12-5.62,1.54-4.63,4.21-8.48,7.97-11.57.42.02.68-.16.76-.58l.07-.04c.43.07.71-.08.79-.53l.06-.04c.76-.06,1.29-.48,1.72-1.06.09-.05.18-.09.27-.14.63-.09,1.2-.3,1.58-.85.08-.03.16-.06.24-.1.46-.02.93,0,1.14-.53.09-.02.18-.05.27-.07.47.02.94.05,1.17-.5.26-.08.52-.16.78-.24.34.17.54.02.68-.28.18-.05.36-.09.54-.14.09.15.14.14.15-.04.12-.04.23-.08.35-.12.32.16.53.02.69-.26.17-.04.33-.08.5-.13.31.29.49.1.65-.17.16-.04.33-.08.49-.12.33.31.49.1.62-.2.18-.04.37-.08.55-.12.09.15.14.13.16-.03.21-.05.42-.1.63-.15.57.26,1.03,0,1.46-.33.2-.02.39-.04.59-.07.12.15.2.11.26-.05.28-.04.56-.07.85-.11,1.01.28,1.94-.11,2.88-.35.4-.01.79-.03,1.19-.04,1.51.31,3.02.32,4.54.02.19.02.38.04.57.06.33.36.71.55,1.19.29.19.04.37.08.56.13,1,.56,2.08.7,3.61.78-.63-.39-.89-.56-1.16-.73-2.27-1.76-4.78-3.09-7.51-3.97-4.75-1.53-9.57-1.84-14.46-.7-.36.08-.75.08-1.12.12l-.18-1.08c.27-.58.04-1.08-.28-1.55-.08-.44-.17-.88-.25-1.33.03-.22.06-.44.08-.66.13-.25.21-.54.4-.74,1.96-2.04,3.46-4.42,4.94-6.8,2.47-3.98,4.4-8.19,4.43-13,0-.76.48-1.88-.35-2.21-.82-.32-1.07.89-1.57,1.41-6.62,6.87-14.08,12.22-23.63,14.41-4.74,1.08-9.4,1.18-14.11.58-1.62-.2-3.37.2-4.86-.63-.81-.45-1.56-.54-2.28-.13-2.07,1.18-4.32.82-6.53.86-1.33.02-2.53-.45-3.58-1.24-3.46-2.56-5.98-2.62-9.65-.2-1.82,1.2-2,1.17-3.26-.61.05-.45.09-.9.14-1.35.45-.23.43-.61.33-1.01.19-1.27,1.16-2.05,1.84-3.02,1.11-.74,2.21-1.49,3.32-2.23-3.27.48-6.21,1.67-8.94,3.36-.58.36-1.14.68-1.85.53-.08-.37-.16-.75-.23-1.12.27-.77.3-1.54-.01-2.31.05-.17.09-.34.14-.5.17-.08.33-.15.1-.34.06-.17.13-.34.19-.51.27-.13.4-.35.34-.66.02-.09.06-.17.12-.24.06-.1.13-.19.19-.29.06-.1.13-.19.19-.29.1-.04.14-.11.13-.22.09-.13.17-.25.26-.38.23-.07.32-.24.33-.46,0,0,.05-.06.05-.06,1.6-1.21,3.16-2.47,4.9-3.55-2.19-.12-4.24.3-6.21,1.12-1.69.7-3.32,1.77-5.28.97Z" style="fill:#0ad3fc; stroke-width:0px;"/><path d="m556.04,188.05c1.22,3.33,4.09,4.65,7.12,5.62,3.6,1.15,7.37,1.55,11.11,1.45,5.18-.14,10.27-1.04,15.18-2.86,7.91-2.94,13.42-8.23,15.94-16.32,1.4-4.48,1.62-9.12,1.15-13.83-.32-3.17-.67-6.31-1.48-9.4-1.1-4.2-2.77-8.16-4.69-12.04-2.27-4.58-5.43-8.51-9.23-11.86-7.28-6.44-15.27-8.06-24.45-3.97-2.73,1.22-5.3,2.8-7.93,4.25-.4.22-.87.43-1.01.95-.6.27-1.12.72-1.8.81-1.43-.36-2.77.31-4.16.35-.55.01-1.1.23-1.66,0,1.23-1.42,2.95-2.21,4.39-3.36,1.8-1.45,3.58-2.9,5.28-4.83-1.97.22-3.65.71-5.46.48.35-.44.74-.43,1.11-.51,2.94-.62,5.9-1.12,8.8-1.88,6.51-1.69,12.62-4.3,18.01-8.42,3.67-2.81,6.85-6.1,9.3-10,2.82-4.48,3.53-9.39,2.34-14.56,2.23-1.59,3.88-3.74,5.56-5.84,2.78-3.48,4.19-7.47,3.79-11.92-.45-5.06-2.14-9.73-5.07-13.91-1.47-2.09-3-4.13-4.52-6.2.4-.36.73,0,1.07.03-.04.67.5.72.93.88,2.26.87,4.57,1.24,6.98.71.45.27.56.76.78,1.17,2.44,4.48,3.92,9.3,5.12,14.22,1.47,6.01,1.57,12.09.46,18.15-.82,4.53-2.46,8.79-4.59,12.87-1.55,2.16-2.65,4.62-4.37,6.67-.33.39-.33.82.37.85-.69,1.55-2.04,2.55-3.17,3.7-2.55,2.62-5.23,5.11-8.29,7.15-.39.26-.69.63-1.19,1.1,2.4-.17,4.56-.32,6.42-1.71.28-.21.72-.19,1.08-.27.94,2.04,2.41,3.75,3.59,5.64,2.63,4.21,5.16,8.47,7.48,12.86,2.94,5.54,5.23,11.38,6.76,17.43,1.05,4.12,1.9,8.33,2.39,12.6.72,6.15.66,12.29-.33,18.37-1.04,6.35-3.21,12.34-6.5,17.9-2.18,3.54-4.63,6.86-7.72,9.67-3,2.73-6.25,5.12-9.71,7.24-1.2.48-2.23,1.39-3.59,1.5-.11-.23-.22-.46-.33-.69h0c-.2-.28-.39-.57-.59-.86h0c-1.31-1.89-3-3.39-4.87-4.7-.12-.12-.24-.23-.37-.35v.03c.1-.18-.48-.74.3-.52.58.16,1.15.32,1.72.49.03.02.06.04.09.06-.04-.02-.07-.03-.11-.05-1.79-2.48-4.48-3.68-7.14-4.79-5.13-2.14-10.51-2.52-15.99-1.63-.79.13-1.4.25-1.9-.67-2.84-5.27-3.55-10.9-2.97-16.76.02-.23.17-.44.26-.66.09.07.18.13.27.19Z" style="fill:#1080ce; stroke-width:0px;"/><path d="m592.34,85.18c.04.08.08.16.11.25.05.73.33,1.39.68,2,.42.72.32,1.28-.17,1.94-3.01,4.05-6.81,7.32-10.7,10.43-5.1,4.08-10.92,6.9-17.1,9.01-5.8,1.98-11.8,2.38-17.78,1.71-7.35-.81-13.99-3.72-20.11-7.88-5.36-3.64-10.11-7.9-14.17-12.95-.75-.93-.88-1.61.32-2.25.62-.33,1.22-.76,1.74-1.24,1.72-1.61,3.49-3.19,4.41-5.45,0-.08.03-.14.11-.17.4-.05.56-.28.46-.67.89-1.51,1.86-2.97,2.48-4.63.39-1.05.61-2.09.43-3.2-.02-.73-.43-.67-.83-.35-1.22.96-2.68,1.41-4.09,1.97-4.46,1.77-9.01,2.54-13.77,1.36-1.37-.34-2.38-1.37-3.72-1.71.06-2.35,1.34-3.92,3.29-5.03,1.42-.81,2.92-1.41,4.53-1.76.53-.11,1.17-.09,1.5-.69,8.29-.48,15.55,2.71,22.69,6.35,2.33,1.19,4.61,2.46,6.91,3.71.38.21.75.41,1.2.37,2.41,1.56,5.01,2.59,7.89,2.86.63.34,1.26.35,1.89.01.22-.01.44-.02.66-.04,4.72.77,9.18-.28,13.55-1.95,1.96-.75,3.56-2.44,5.88-2.28.27-.09.53-.18.8-.27.42.66,1.11.47,1.69.45,3.2-.1,6.22.62,9.16,1.82,1.14.46,2.02,1.45,3.31,1.59.08.03.16.08.24.12.3.61.8.95,1.47,1.04.08.04.16.09.23.15.13.47.41.73.92.72.77.78,1.54,1.55,2.3,2.33-.02.35.15.54.5.58.05.08.1.15.13.24.04.69.41,1.17,1.01,1.49Z" style="fill:#f7fefe; stroke-width:0px;"/><path d="m519.56,80.76c-.92,2.26-2.7,3.84-4.41,5.45-.52.48-1.11.91-1.74,1.24-1.2.63-1.06,1.32-.32,2.25,4.06,5.05,8.81,9.31,14.17,12.95,6.13,4.16,12.77,7.07,20.11,7.88,5.99.66,11.98.27,17.78-1.71,6.18-2.11,12-4.93,17.1-9.01,3.89-3.11,7.69-6.38,10.7-10.43.5-.67.59-1.23.17-1.94-.36-.61-.63-1.28-.68-2,.97.63.93,1.8,1.44,2.67,1.2,5.17.48,10.07-2.34,14.56-2.45,3.91-5.63,7.2-9.3,10-5.39,4.12-11.5,6.72-18.01,8.42-2.9.75-5.86,1.26-8.8,1.88-.37.08-.76.07-1.11.51,1.81.24,3.49-.25,5.46-.48-1.7,1.93-3.47,3.39-5.28,4.83-1.44,1.15-3.15,1.94-4.39,3.36-3.96,1.39-7.73,3.3-11.86,4.19-.2-.37-.56-.51-.93-.57-2.09-.36-3.94-1.35-5.7-2.43-1.04-.63-2.36-1.07-2.87-2.39.35-2.37,1.42-4.53,2.07-6.81.18-.64.65-.37,1.05-.32,3.25.41,6.5.38,9.77.12-3.83-.74-7.65-1.42-11.38-2.53-7.22-2.15-14.52-4.11-20.95-8.3-.82-.53-1.2-.96-1.01-2.02.24-1.39-.36-3.37.39-4.11.83-.82,2.55-.99,3.76-1.93.55,1.59,1.02,3.19,1.63,4.72,1.15,2.85,3.76,4.44,6.79,4.24,2.79-.18,4.39-1.82,4.35-4.6-.01-.9.27-.94.98-.73,1.71.5,3.43.97,5.2,1.32-2.82-1.61-5.33-3.61-7.85-5.6-4.74-3.75-9.02-7.93-11.81-13.42-.56-1.11-1.12-2.22-1.33-3.46-.07-.41-.24-.92.42-.99,3.6-.35,6.19-2.5,8.7-4.81Z" style="fill:#97cef9; stroke-width:0px;"/><path d="m493.84,125.71c-.77,1.12-1.54,2.26-2.32,3.37-2.52,3.55-6.11,5.03-10.31,5.33-6.4.47-12.37-.99-18.14-3.72-7.48-3.53-14.08-8.29-19.69-14.29-7.75-8.3-13.66-17.75-16.4-28.93-1.19-4.87-1.52-9.8-.13-14.71.81-2.82,2.05-5.44,4.14-7.57.1.07.21.15.31.22.03-.11.05-.22.08-.33,0,0,0,0,0,0,.96.02,1.58-.73,2.38-1.09,6.08-2.68,12.15-1.99,18.15.12,5.8,2.04,10.94,5.27,15.82,9.02,3.5,2.69,6.78,5.6,9.67,8.9,4.65,5.32,8.99,10.88,12.15,17.26,1.45,3.47,2.95,6.92,4.19,10.49-.34-3.14-1.25-6.12-2.47-9-.33-.78-.33-1.81-1.3-2.24.01-.59-.24-1.1-.46-1.63-1.41-3.41-3.55-6.4-5.53-9.48.38,0,.58-.28.83-.5,2.29-2.06,4.55-4.16,6.67-6.4.35-.37.65-.84,1.24-.88.44.62.91,1.23,1.32,1.87,4.44,6.84,8.18,13.98,9.14,22.25-.19.24-.17.48-.14.79.27,2.98-.33,5.79-1.41,8.6-.76,1.97-2.31,3.36-3.23,5.17-1.01.98-2.02,1.97-3.03,2.95-.25.07-.32.26-.33.48.02,1.24-.86,2.27-.86,3.5,0,0,.02-.03.02-.03-.11.15-.21.29-.32.44Zm-19.32,5.3c2.2-2,4.23-4.16,5.98-6.57,2.1.19,4.18.12,6.25-.28.35-.07.8-.27,1.04.14.19.31-.05.64-.19.94-1.22,2.64-2.98,4.75-5.73,5.9-.24.1-.69.06-.65.55,1.39.06,2.48-.69,3.69-1.18,3.52-1.4,5.46-4.1,6.3-7.6,1.44-5.97.37-11.77-1.86-17.34-5.11-12.74-13.26-23.17-24.25-31.39-5.95-4.46-12.37-7.9-19.85-8.95-3.65-.52-7.25-.37-10.48,1.77-4.42,2.94-6.1,7.26-6.23,12.36-.17,6.51,2,12.46,4.44,18.34.1.25.25.53.71.56-.22-1.14.56-1.77,1.24-2.47,1.1-1.13,2.18-2.27,3.24-3.43.68-.74,1.09-1.02,1.64.2,1.48,3.27,3.54,6.2,5.58,9.14,1.74,2.51,3.87,4.7,5.75,7.1.04.7-.55.93-.95,1.31-1.3,1.24-2.9,2.16-3.91,3.7-.63.07-.92-.45-1.27-.8-1.51-1.53-2.98-3.08-4.48-4.62-.27-.28-.48-.77-1.09-.43,8.34,11.5,19.16,19.51,32.81,23.58.72.22,1.73.57,2.26-.53Z" style="fill:#1080ce; stroke-width:0px;"/><path d="m636.51,209.22c-.13.6.26.95.59,1.37,1.27,1.63,1.12,2.88-.6,4.11-1.82,1.3-3.82,2.3-5.91,3.08-8.86,3.31-18.07,5.16-27.32,6.95-4.06.78-8.12,1.48-12.2,2.11-4.55.7-9.12,1.18-13.67,1.86-3.66.55-7.3,1.19-10.93,1.9-3.87.75-7.73.74-11.64.44-2.94-.22-5.86-.51-8.73-1.22-1.45-.36-2.79-.95-4.05-1.71-1.14-.68-1.54-1.71-.94-2.93.38-.77,0-.77-.55-.83-2.84-.27-5.67-.56-8.5-.83-4.58-.44-9.12-1.25-13.67-1.85-6.66-.88-13.08-2.83-19.61-4.26-2.44-.53-4.92-1.15-7.13-2.46-1.66-.98-2.04-1.99-1.31-3.46.49,2.24,2.15,3.33,4.13,3.94,4.71,1.43,9.56,1.85,14.44,1.34,7.74-.81,15.25-2.92,22.91-4.22.6-.1,1.13-.12,1.66.12,2.98,1.32,6.1,2.19,9.26,2.94,1.11.26.98.65.56,1.44-1.22,2.3-1.62,4.71-1.1,7.33.44,2.23,1.76,3.56,3.75,4.29,3.6,1.32,7.39,1.24,11.15,1.53,5.27.41,10.19-1.19,15.19-2.36,7.48-1.75,14.94-3.53,22.26-5.88,5.55-1.79,10.39-4.76,14.28-9.15.63-.71,1.28-1.01,2.22-1.01,6.54,0,13.04-.54,19.52-1.4,2.03-.27,3.93-.99,5.95-1.18Z" style="fill:#1080ce; stroke-width:0px;"/><path d="m572.17,164.02l.18,1.08s-.07.04-.07.04c0,0-.08-.02-.08-.02-.14.07-.28.15-.42.22-6.83,2.38-12.55,6.23-16.33,12.54-2.87,4.79-4.08,10.03-4.01,15.59-.66.4-1.4.22-2.1.3-6.83.78-13.46.03-19.91-2.41-5.87-2.22-10.46-5.94-13.65-11.35-.26-.44-.59-.73-1.05-.9-.48-2.25-.23-4.51-.24-6.95.7.33.99.81,1.3,1.25,1.03,1.43,2.24,2.7,3.44,4,2.94,3.17,6.36,3.55,10.13,1.87,4.31-1.91,7.38-4.98,8.61-9.66.37.05.75.09,1.12.17,4.52.98,9.1,1.19,13.6.29,6.42-1.29,12.32-3.85,17.33-8.21.43-.38.87-.94,1.61-.73.08.44.17.88.25,1.33-.1.55-.29,1.12.28,1.55Z" style="fill:#f7fefe; stroke-width:0px;"/><path d="m620.54,191.46c.98-3.45,1.44-7,1.96-10.54.2-.12.41-.22.59-.37,4.32-3.57,8.98-6.63,14.07-8.97,7.8-3.59,15.72-5.3,23.94-1.25,1.21,1.09,2.6,2,3.58,3.34.66,2.38-.01,4.36-1.68,6.12-1.75,1.85-3.85,3.25-6.05,4.44-4.96,2.66-10.28,4.36-15.78,5.5-6.8,1.41-13.69,1.86-20.62,1.71Z" style="fill:#0ad3fc; stroke-width:0px;"/><path d="m620.54,191.46c6.93.14,13.82-.3,20.62-1.71,5.5-1.14,10.82-2.84,15.78-5.5,2.2-1.18,4.3-2.58,6.05-4.44,1.67-1.76,2.34-3.75,1.68-6.12.22-.03.44-.05.66-.08,2.8,3.74,4.16,8.77,1.23,14.32-2,3.8-5.13,6.48-8.81,8.54-7.36,4.13-15.35,6.5-23.57,8.14-6.5,1.3-13.07,2.16-19.71,2.42-.27.01-.6.23-.8-.04-.21-.27,0-.54.17-.77,3.18-4.29,4.94-9.21,6.44-14.26.05-.18.17-.34.26-.5Z" style="fill:#1080ce; stroke-width:0px;"/><path d="m514.72,179.12c.46.17.79.46,1.05.9,3.2,5.41,7.78,9.13,13.65,11.35,6.45,2.44,13.08,3.18,19.91,2.41.7-.08,1.44.1,2.1-.3.36,2.21.46,4.45.97,6.64.5,2.16,1.33,4.18,2.34,6.12.33.63.41.94-.39,1.21-2.7.91-5.12,2.31-7.17,4.31-.42.42-.87.48-1.43.37-13.47-2.78-23.42-10.06-28.9-22.88-1.37-3.19-2.15-6.6-2.14-10.14Z" style="fill:#97cef9; stroke-width:0px;"/><path d="m511.64,152.18c1.27,1.78,1.44,1.82,3.26.61,3.67-2.42,6.2-2.36,9.65.2,1.06.78,2.25,1.26,3.58,1.24,2.21-.03,4.46.32,6.53-.86.73-.41,1.47-.32,2.28.13,1.49.83,3.24.43,4.86.63,4.71.59,9.38.5,14.11-.58,9.55-2.19,17.01-7.53,23.63-14.41.5-.52.75-1.73,1.57-1.41.83.33.36,1.46.35,2.21-.03,4.82-1.96,9.02-4.43,13-1.48,2.38-2.98,4.76-4.94,6.8-.19.2-.27.49-.4.74-.69-.64-.42-1.61-.8-2.36,2.35-2.3,4.64-4.65,6.41-7.45.29-.46.72-.88.72-1.59-.67-.14-.98.35-1.33.66-5.02,4.41-10.56,8.01-16.88,10.23-8.75,3.08-17.59,3.5-26.43.29-.53-.19-1.07-.41-1.55-.72-.86-.56-1.78-1.17-.33-2.3-1.09-.34-2.03-.11-2.93-.08-3.1.09-5.84-.64-7.98-3.05-.86-.97-1.82-.91-2.73,0-.2.2-.4.41-.59.62-1.41,1.5-2.45,1.81-3.89,1.17-1.26-.56-1.89-1.92-1.75-3.72Zm66.59-3.59l-.05.07h.07s-.02-.07-.02-.07Z" style="fill:#1080ce; stroke-width:0px;"/><path d="m581.85,212.71c1.88,1.31,3.57,2.82,4.87,4.72,0,0,0-.01,0-.01.2.29.39.58.59.87,0,0,0,0,0,0,.11.23.22.46.33.69.04.18.08.37.12.55-4.42,1.17-8.83,2.37-13.26,3.49-4.39,1.11-8.8,2.15-13.2,3.21-.23.06-.47.14-.7.14-1.15,0-2.71.66-3.28-.57-.61-1.33-.33-2.93.88-4.1.54.22,1.09.42,1.61,0,1.69-1.38,3.39-2.73,5.03-4.16.75-.65.52-1.1-.45-1.3-.49-.1-.91-.05-1.38.09-1.56.47-2.79,1.43-3.97,2.5-1.85,1.33-2.59,3.31-3.05,5.4-.42,1.9-.79,2.17-3.2,1.91-1.74-.18-2.25-.74-2.16-2.49.07-1.33.23-2.66,1.26-3.67.11.8.29,1.24,1.2.56,1.61-1.18,2.63-2.86,3.89-4.33.27-.32.65-.74.34-1.13-.36-.44-.88-.18-1.3.07-1.07.64-1.85,1.62-2.78,2.42-.03-.31-.26-.42-.48-.32-.22.1-.28.36-.14.6l.11.05c-.65-.41-.81.24-1.08.53-1.42,1.56-2.23,3.43-2.5,5.51-.15,1.15-.7,1.31-1.67.96-1.42-.5-2.21-1.57-1.98-3.07.32-2.13.97-4.16,2.43-5.83.56.81,1,.08,1.4-.16,1.9-1.14,3.78-2.3,5.78-3.26,3.22-1.54,6.66-2.27,10.26-2.75-.27-.33-.44-.54-.6-.74,3.58-.46,7.06.18,10.48,1.15,2.12.6,4.18,1.42,6.27,2.14,0,0-.01-.03-.01-.03-.02.26.18.3.37.35Z" style="fill:#d56d97; stroke-width:0px;"/><path d="m489.53,99.32c-3.16-6.38-7.5-11.94-12.15-17.26-2.89-3.3-6.17-6.21-9.67-8.9-4.88-3.75-10.02-6.98-15.82-9.02-6-2.11-12.07-2.8-18.15-.12-.8.35-1.41,1.11-2.38,1.09.93-1.56,2.45-2.44,3.89-3.41,1.95-.41,3.89-.82,5.84-1.23,1.89.21,3.81-.06,5.7.35.71.16,1.27-.14,1.78-.67,1.52-1.58,3.11-3.1,4.62-4.69.47-.49,1.09-.92,1.24-1.73-2.12-.48-4.19-.46-6.27-.16-1.22-.07-2.33.66-3.57.5.05-.64.62-.58,1.02-.74,3.84-1.54,7.78-1.56,11.77-.71,13.42,2.86,23.84,10.4,32.48,20.76,5.36,6.42,9.68,13.45,12.45,21.37,1.02,2.92,1.88,5.9,1.87,9.04-.34.24-.68.02-1.03.02-.96-8.27-4.7-15.41-9.14-22.25-.41-.64-.88-1.24-1.32-1.87-1.16-1.81-2.53-3.44-3.91-5.08-4.09-4.89-8.64-9.25-14.03-12.7-.86-.55-1.54-.6-2.29.12-2.13,2.04-4.27,4.09-6.43,6.1-.62.58-.57,1,.06,1.49,1.5,1.17,3,2.34,4.48,3.53,3.36,2.69,6.27,5.82,9.04,9.09,1.46,1.73,2.54,3.78,4.32,5.24,1.98,3.08,4.12,6.06,5.53,9.48.22.53.47,1.04.46,1.63-.14.25-.27.5-.41.75Z" style="fill:#f7fefe; stroke-width:0px;"/><path d="m579.57,16.05c-3.34-1.42-6.81-2.45-10.32-3.3-11.82-2.87-23.57-2.27-35.18,1.08-7.09,2.04-13.44,5.59-19.17,10.25-2.41,1.96-4.81,3.91-6.75,6.36-.34.42-.61.84-.72,1.37-1.62-.06-3.04.49-4.39,1.41,1.67-2.67,3.5-5.17,5.61-7.48,2.4-2.63,4.92-5.19,7.77-7.28,5.66-4.16,11.79-7.46,18.66-9.28,15.05-3.99,29.53-2.57,43.45,4.41.34.17.67.36,1,.56q1.33.81.06,1.91Z" style="fill:#f7fefe; stroke-width:0px;"/><path d="m608.66,200.55c3.28-5.56,5.46-11.55,6.5-17.9.99-6.09,1.05-12.22.33-18.37-.5-4.26-1.35-8.47-2.39-12.6-1.54-6.05-3.83-11.89-6.76-17.43-2.32-4.38-4.85-8.65-7.48-12.86-1.18-1.89-2.65-3.6-3.59-5.64.6-.55.84.06,1.11.39,3.26,3.99,6.11,8.24,8.73,12.69,2.95,5.02,5.39,10.26,7.48,15.67.75,1.94,1.17,4.01,1.87,5.97,2.73,7.69,3.9,15.64,3.86,23.77-.05,9.45-2.2,18.41-6.56,26.82-.35.67-.62,1.4-1.25,1.88-.1-.25-.21-.73-.3-.73-1.16.02-1.21-.93-1.53-1.65Z" style="fill:#97cef9; stroke-width:0px;"/><path d="m510.63,198.86c2.4-.5,4.71.18,7.04.54.28.04.57.34.77.59,2.74,3.29,5.46,6.6,9.27,9.06-1.17.57-2.26.59-3.3.78-5.38.99-10.76,1.98-16.15,2.92-1.07.19-2.18.23-3.27.24-1.5,0-1.95-.54-1.71-2.04.12-.74.23-1.51.84-2.06,1.62,1.01,2.58-.4,3.41-1.2,2.44-2.39,5.42-3.29,8.65-3.65.95-.11.92-.46.5-1.07-.55-.8-1.28-1.42-2.1-1.9-1.3-.76-2.63-1.47-3.94-2.2Z" style="fill:#d56d97; stroke-width:0px;"/><path d="m510.63,198.86c1.32.73,2.65,1.43,3.94,2.2.82.48,1.55,1.1,2.1,1.9.42.62.45.97-.5,1.07-3.23.36-6.21,1.26-8.65,3.65-.82.8-1.79,2.21-3.41,1.2.47-1.46,1.61-2.46,2.73-3.69-1.11.02-1.72.61-2.38,1.09-1.08-.04-1.64.86-2.35,1.4-1.23.94-2.6.55-3.92.62.47-1.07,1.07-2.07,1.95-3.33-1.57.45-1.93,1.76-2.86,2.38-1.06.36-1.99,1.18-3.23.92.09-1.74.81-3.19,1.94-4.51,2.84-3.31,6.47-4.8,10.77-4.87.84-.01,1.68-.13,2.52-.2.12.23.24.27.39.03l.96.13Z" style="fill:#f7fefe; stroke-width:0px;"/><path d="m510.64,179.41c.48,4.06,1.09,8.1,2.68,11.91.46,1.09.98,2.16,1.51,3.22.3.6.21.89-.5.88-1.71-.01-3.43-.01-5.14-.03-.4,0-.73-.17-.99-.49-4.32-5.32-6.74-11.22-5.46-18.22.1-.55.19-1.13.65-1.54.09.03.16.08.21.16.07,2.52,1.86,4.55,4.71,5.36,1.74.49,1.96.37,2.33-1.25Z" style="fill:#1080ce; stroke-width:0px;"/><path d="m500.63,73.36c1.34.34,2.35,1.37,3.72,1.71,4.77,1.18,9.32.41,13.77-1.36,1.4-.56,2.87-1,4.09-1.97.4-.31.81-.37.83.35-1.68,4.09-4.43,7.25-8.31,9.38-4.66,2.56-9.16,1.58-12.34-2.7-.84-1.12-1.81-2.19-2.08-3.64-.11-.61-.44-1.31.32-1.78Z" style="fill:#d56d97; stroke-width:0px;"/><path d="m570.91,158.12c.38.75.11,1.72.8,2.36-.03.22-.06.44-.09.66-.74-.21-1.18.36-1.61.73-5.01,4.36-10.91,6.92-17.33,8.21-4.5.9-9.09.69-13.6-.29-.37-.08-.75-.11-1.12-.17.01-1.43.08-2.86-1.12-4.25.8.14,1.3.2,1.8.32,11.9,2.77,22.53.13,32.01-7.46.07-.06.17-.08.26-.12Z" style="fill:#97cef9; stroke-width:0px;"/><path d="m533.37,165.6c-3.01.97-5.56,2.6-7.86,4.63-.61.54-.82.01-1.11-.33-2-2.36-4.03-4.7-5.99-7.1-.56-.69-1.69-1.2-1.58-2.09.11-.89,1.47-.9,2.04-1.59.94-1.14,1.88-1.04,3.03-.3,1.86,1.19,3.94,1.67,6.15,1.5.44-.03.85-.01,1.17.36,1.35,1.59,2.91,3.02,4.15,4.91Z" style="fill:#d56d97; stroke-width:0px;"/><path d="m661.09,170.34c-8.21-4.05-16.13-2.34-23.94,1.25-5.09,2.34-9.75,5.41-14.07,8.97-.18.15-.39.25-.59.37.06-1.05.13-2.09.18-3.14.02-.34.06-.62.39-.86,5.1-3.69,10.18-7.44,16.31-9.3,6.35-1.94,12.74-2.34,19.01.36,1.19.51,2.25,1.31,3.38,1.97-.13.29-.41.31-.66.38Z" style="fill:#f7fefe; stroke-width:0px;"/><path d="m556.04,188.05c-.09-.06-.18-.13-.27-.19.26-3.56,1.43-6.82,3.59-9.62,5.53-7.16,12.87-10.76,21.95-10.8,4.16-.02,8.23.48,12.2,1.72-.18.15-.35.29-.53.44-.19-.04-.37-.08-.56-.12-.35-.29-.73-.46-1.19-.29-.19-.02-.38-.04-.57-.06-1.51-.41-3.02-.42-4.54-.02-.4.01-.79.03-1.19.04-.99-.12-1.97-.14-2.88.35-.28.04-.56.07-.85.11-.12-.14-.2-.09-.26.05-.2.02-.39.04-.59.07-.54-.12-1.03-.04-1.46.33-.21.05-.42.1-.63.15-.06-.03-.12-.01-.16.03-.18.04-.37.08-.55.12-.26-.11-.47-.04-.62.2-.16.04-.33.08-.49.12-.26-.12-.48-.07-.65.17-.17.04-.33.08-.5.13-.3-.1-.5.07-.69.26-.12.04-.23.08-.35.12-.06-.02-.11-.01-.15.04-.18.05-.36.09-.54.14-.3-.08-.49.1-.68.28-.26.08-.52.16-.78.24-.48-.05-.86.13-1.17.5-.09.03-.18.05-.27.07-.49-.06-.86.14-1.14.53-.08.04-.16.07-.24.1-.63.1-1.21.29-1.58.85-.09.05-.18.09-.27.14-.67.2-1.32.43-1.72,1.06,0,0-.06.04-.06.04-.36.03-.68.13-.79.53,0,0-.07.04-.07.04-.36.05-.6.26-.76.58-3.77,3.09-6.44,6.94-7.97,11.57Z" style="fill:#f7fefe; stroke-width:0px;"/><path d="m509.52,52.04c-3.4-3.4-7.52-3.36-10.71.25-3.28,3.72-3.89,8.14-3,12.87-.17,0-.34.02-.51.03-1.57-5.32-1.06-10.44,1.55-15.31,1.36-2.53,3.01-4.85,5.74-6.13,3.83.52,6.28,2.49,6.84,6.47.05.38.4.5.75.56.04.4.09.8.13,1.2-.26.02-.53.04-.79.06Z" style="fill:#f7fefe; stroke-width:0px;"/><path d="m555.95,130.84c.68-.08,1.2-.54,1.8-.81,1.83-.2,3.39-1.2,5.1-1.74.35-.11.7-.24,1.35-.47-4.72,3.53-8.87,7.26-13.86,9.83-4.87,2.51-9.97,3.64-15.45,2.79-.7-.11-1.42-.17-2.13-.25-.25-.19-.5-.39-.95-.74,9.2-.14,16.81-3.99,24.13-8.61Z" style="fill:#f7fefe; stroke-width:0px;"/><path d="m605.23,19.09c-.39-.3-.77-.6-1.16-.9,0-.18-.09-.26-.27-.22-.08-.04-.16-.09-.24-.13-.1-.23-.29-.31-.53-.29,0,0-.02-.01-.02-.01-.11-.06-.22-.12-.33-.18-.28-.13-.56-.25-.83-.38-.2-.34-.4-.65-.83-.26-.29-.1-.59-.2-.88-.3-.31-.34-.63-.65-1.13-.29-.36-.05-.72-.11-1.09-.16-2.33-.67-4.64-.69-6.93.15-.1.02-.2.03-.3.05-.65-.1-1.24.03-1.69.55-3.15,1.19-5.97,2.89-8.4,5.25-2.36,2.28-4.28,4.88-5.94,7.72.17-2.97,1.65-5.5,2.5-8.23.18-.33.36-.65.6-1.09.33.64-.42,1.25.14,1.73-.09-.08-.05-.4-.3-.16.1.05.21.1.31.14,7.42-10.8,20.71-10.96,28.4-3.42.32.32.51.77.76,1.16,0,0-.05.05-.05.05-.61.18-.87-.66-1.47-.51,0,0-.02-.02-.02-.02-.01-.17-.1-.25-.28-.23Z" style="fill:#f7fefe; stroke-width:0px;"/><path d="m501.27,80.88c1.91,1.85,3.72,3.97,6.47,4.47,2.23.4,2.15,2.26,2.86,3.63,1.31,2.53,2.26,5.13,1.63,8.08-.44,2.08-1.26,3.89-3.09,5.1-.73.48-1.28.6-1.36-.59-.06-.89-.28-1.78-.43-2.66,1.06-1.02.98-2.42,1.08-3.7.29-3.66-1.38-6.57-3.67-9.25-1.34-1.56-2.94-2.96-3.49-5.07Z" style="fill:#97cef9; stroke-width:0px;"/><path d="m510.64,179.41c-.38,1.62-.6,1.74-2.33,1.25-2.85-.81-4.64-2.84-4.71-5.36,1.86-3.03,4.16-5.72,6.41-8.45,1.21.77,1.68,1.77,1.12,3.2-.24.6-.26,1.28-.38,1.92-.37.35-.36.74-.11,1.16-.21,2.09-.03,4.19,0,6.28Z" style="fill:#0ad3fc; stroke-width:0px;"/><path d="m604.4,98.26c2.13-4.08,3.76-8.34,4.59-12.87,1.1-6.07,1.01-12.14-.46-18.15-1.2-4.92-2.68-9.74-5.12-14.22-.22-.41-.34-.9-.78-1.17.85-.83,1.09-.03,1.42.53,2.78,4.77,4.73,9.85,5.9,15.26,2.15,9.95,1.1,19.51-3.28,28.69-.51,1.06-1.15,2.05-1.74,3.08-.17-.38-.35-.76-.52-1.14Z" style="fill:#97cef9; stroke-width:0px;"/><path d="m501.27,80.88c.55,2.11,2.16,3.51,3.49,5.07,2.29,2.68,3.96,5.59,3.67,9.25-.1,1.28-.02,2.67-1.08,3.7-1.26-5.25-3.13-10.26-5.78-14.98-2.03-3.62-4.26-7.09-6.8-10.36-1.03-1.32-.48-2.58,1.27-2.68,1.09-.06,1.06-.46.75-1.21.18-.02.36-.04.54-.06.34.7.43,1.36.3,2.18-.33,2.25.79,4.17,1.75,6.09.4.8.93,1.53,1.4,2.29-.02.22.07.36.3.4l.19.31Z" style="fill:#f7fefe; stroke-width:0px;"/><path d="m608.66,200.55c.32.72.37,1.68,1.53,1.65.09,0,.2.48.3.73,0,0,0-.01,0-.01-.33.08-.36.32-.31.6,0,0,.02-.03.02-.03-.2.04-.28.17-.28.36,0,0,.04-.05.04-.05-.41.08-.38.39-.37.69-2.1,3.42-4.77,6.33-7.99,8.74-.28,0-.53.02-.57.38,0,0,.04-.05.04-.05-.2,0-.31.09-.36.29,0,0,.03-.03.03-.03-.11.1-.22.19-.33.29,0,0,.02-.02.02-.02-.26,0-.51.03-.58.35,0,0,.04-.05.04-.05-.11.1-.21.2-.32.3,0,0,.01,0,.01,0-.54-.08-1.04-.07-1.13.64,0,0,.02-.03.02-.03-1.32.11-2.41.65-3.23,1.71-.17.07-.34.15-.51.22-.93-.43-1.64.29-2.4.55-.57.19-.84.2-1.1-.31,3.45-2.12,6.7-4.51,9.71-7.24,3.09-2.81,5.54-6.13,7.72-9.67Z" style="fill:#0ad3fc; stroke-width:0px;"/><path d="m504.4,134.57c-.09.06-.17.12-.26.18-.11-.03-.22-.06-.33-.09,3.42-4.94,10.11-6.29,15.79-3.19,3.92,2.14,6.69,5.49,9.27,9.01.04.44.18.83.48,1.16.02.62-.41.57-.82.55-.51-.56-1.02-1.13-1.53-1.69,0-.17-.08-.25-.25-.24,0,0-.04-.04-.04-.04.01-.17-.07-.25-.24-.26,0,0-.03-.03-.03-.03-.04-.32-.23-.5-.54-.55,0,0-.03-.03-.03-.03,0-.17-.08-.25-.25-.25,0,0-.03-.03-.03-.03,0-.17-.08-.25-.25-.26,0,0-.03-.03-.03-.03-.06-.31-.24-.5-.56-.54,0,0-.03-.03-.03-.03,0-.17-.09-.25-.26-.25-.08-.06-.15-.12-.23-.18-.07-.07-.15-.13-.22-.2-.51-.47-1.03-.95-1.54-1.42-.09-.08-.18-.16-.28-.24,0,0-.03-.02-.03-.02-.12-.46-.48-.6-.88-.69-.06-.03-.1-.07-.14-.12-.2-.4-.51-.66-.96-.74-.08-.06-.17-.12-.25-.17-.03-.05-.08-.08-.13-.08-.05-.02-.09-.05-.13-.09-.08-.06-.16-.11-.24-.17,0,0-.07-.04-.07-.04-.41-.54-.98-.77-1.63-.85-.1-.05-.21-.11-.31-.16-.8-.58-1.67-.9-2.67-.86-.2-.02-.39-.05-.59-.07-1.22-.38-2.44-.48-3.66-.02-.2.02-.41.05-.61.07-2.14.25-4,1.08-5.5,2.65Z" style="fill:#f7fefe; stroke-width:0px;"/><path d="m503.15,103.8c.34,0,.69.22,1.03-.02,0,0-.01-.01-.01-.01-.2.42-.09.75.27,1.01.69,4.87.12,9.51-2.55,13.75-.32.5-.57,1.11-1.23,1.31-.49-.91-1.22-1.46-2.29-1.48.92-1.82,2.46-3.2,3.23-5.17,1.08-2.8,1.68-5.61,1.41-8.6-.03-.31-.04-.55.14-.79Z" style="fill:#0ad3fc; stroke-width:0px;"/><path d="m492.72,150.17c1.67-2.3,6.74-3.71,9.26-2.56.65.3,1.25.68,1.52,1.4-1.7.71-3.7.94-4.64,2.88-.57.21-1.14.42-1.71.63-.28-.03-.56-.11-.82-.08-2.52.35-2.75.22-3.6-2.27Z" style="fill:#f7fefe; stroke-width:0px;"/><path d="m441.1,60.46c-1.95.41-3.89.82-5.84,1.23,2.88-2.82,5.36-6.14,9.33-7.62,1.24.17,2.35-.57,3.57-.5.04.59-.48.79-.8,1.1-2.07,1.95-4.17,3.87-6.26,5.8Z" style="fill:#1080ce; stroke-width:0px;"/><path d="m528.77,129.99c.51,1.32,1.83,1.76,2.87,2.39,1.76,1.07,3.61,2.07,5.7,2.43.37.06.73.2.93.57-1.41.62-2.97.63-4.4,1.1-2.77.91-4.6-.32-6.14-2.41-.18-.25-.3-.45-.17-.76.45-1.09.52-2.31,1.21-3.31Z" style="fill:#f7fefe; stroke-width:0px;"/><path d="m503.34,162.6c-1.32.01-2.54-.32-3.72-.88-.54-.25-.87-.46-.15-.92,2.45-1.59,4.94-3.03,8.03-2.86.72.04,1.41.2,1.68.81.22.5-.24,1.03-.61,1.48-1.37,1.64-3.09,2.47-5.23,2.37Z" style="fill:#d56d97; stroke-width:0px;"/><path d="m505.87,153.29c1.23.51,1.11,1.26.34,2.09-.76.82-1.79,1.26-2.74,1.79-1.67.92-3.43,1.68-4.86,2.98-.52.48-.97.39-1.53.03-.93-.59-1.6-1.4-1.98-2.38-.62-1.6.69-2.27,1.66-3.08-.12,1.34.54,2.1,1.73,2.62.96.42,1.99.12,2.32-.49.92-1.68,2.42-2.12,4.04-2.29.96-.1,1.1-.51,1.01-1.28Z" style="fill:#d56d97; stroke-width:0px;"/><path d="m521.15,105.46c.13.45.32.9.37,1.36.12,1.12.79,2.43-.67,3.16-1.34.67-3.41-.09-4.25-1.43-.74-1.18-.89-2.59-1.41-3.86-.29-.7-.43-1.45-.63-2.18.2-.06.18-.93.59-.18.39.71.66,1.48,1.07,2.18.39.67.48,1.56,1.4,2.17-.12-.88-.24-1.48-.28-2.09-.05-.7.24-.9.83-.42.88.71,1.97.9,2.99,1.29Zm-3.43,1.67s-.04.08-.03.11c.03.13.1.14.16.02.01-.03,0-.08-.03-.12-.01-.02-.06,0-.09-.01Z" style="fill:#f7fefe; stroke-width:0px;"/><path d="m564.75,209.09c.17.2.33.41.6.74-3.59.48-7.03,1.21-10.26,2.75-2.01.96-3.88,2.13-5.78,3.26-.4.24-.85.96-1.4.16,2.32-3.33,5.63-5.2,9.47-6.17,2.41-.6,4.87-.89,7.37-.75Z" style="fill:#f7fefe; stroke-width:0px;"/><path d="m506.8,56c0,1.62-1.19,2.95-2.67,2.98-1.5.03-3.12-1.64-3.08-3.19.03-1.47,1.45-2.73,3.11-2.75,1.48-.02,2.63,1.28,2.64,2.95Z" style="fill:#f7fefe; stroke-width:0px;"/><path d="m505.87,153.29c.09.77-.05,1.18-1.01,1.28-1.62.17-3.12.61-4.04,2.29-.33.61-1.36.91-2.32.49-1.19-.52-1.85-1.29-1.73-2.62,2.28-1.74,4.89-2.21,7.68-1.98.52.04,1.04.15,1.43.55Z" style="fill:#f7fefe; stroke-width:0px;"/><path d="m501.68,139.62c1.97.8,3.59-.27,5.28-.97,1.97-.82,4.02-1.24,6.21-1.12-1.74,1.09-3.3,2.35-4.9,3.55-.08-.62,1.13-1.02.48-1.55-.41-.33-1.03.43-1.51.75-.62.42-1.23.91-1.71,1.48-.76.9-1.58,1.38-2.69.71-1.09-.65-1.59-1.58-1.17-2.86Z" style="fill:#1080ce; stroke-width:0px;"/><path d="m496.27,146.35c-1.34.8-2.71,1.57-4.02,2.43-.46.3-.87.74-1.09,1.33-1.77-2.92.19-6.86,3.58-7.37-.38,1.28.29,2.85,1.53,3.62Z" style="fill:#d56d97; stroke-width:0px;"/><path d="m498.18,208.3c1.33-.07,2.69.32,3.92-.62.72-.55,1.27-1.44,2.35-1.4-1.49,1.63-2.51,3.47-2.57,5.74,0,.14-.03.36-.11.4-.95.44-1.95.34-2.89.08-.86-.24-1.33-.9-1.19-1.84.12-.79.32-1.57.48-2.36Z" style="fill:#d56d97; stroke-width:0px;"/><path d="m498.36,118.36c1.07.02,1.79.57,2.29,1.48-1.69,2.4-4.01,4.04-6.51,5.46,0-1.24.88-2.26.86-3.5.11-.16.22-.32.33-.48,1.01-.98,2.02-1.97,3.03-2.95Z" style="fill:#97cef9; stroke-width:0px;"/><path d="m524.09,9.2c4.09-3.52,8.56-6,14.26-5.09-4.98,1.08-9.58,3.2-14.26,5.09Z" style="fill:#1080ce; stroke-width:0px;"/><path d="m506.48,148.46c.71.15,1.27-.17,1.85-.53,2.73-1.7,5.67-2.88,8.94-3.36-1.11.74-2.21,1.49-3.32,2.23-.35-.67-.74-.16-1.05.01-1.33.75-2.36,1.82-2.97,3.2-.5,1.12-1.16.99-1.89.4-.65-.53-1.35-1.05-1.56-1.95Z" style="fill:#1080ce; stroke-width:0px;"/><path d="m504.38,129.94c-2.75,2.31-4.45,4.84-5.49,7.91-1.05-.55-1.27-1.66-1.89-2.45-.19-.24-.09-.54.11-.78,1.82-2.23,3.75-4.31,7.26-4.68Z" style="fill:#d56d97; stroke-width:0px;"/><path d="m559.04,218.81c1.17-1.07,2.4-2.04,3.97-2.5.47-.14.89-.18,1.38-.09.97.19,1.2.64.45,1.3-1.64,1.43-3.34,2.78-5.03,4.16-.52.43-1.07.22-1.61,0-.09-.82.6-1.33.82-2.03.1-.31.35-.54.02-.84Z" style="fill:#f7fefe; stroke-width:0px;"/><path d="m521.15,105.46c-1.02-.38-2.11-.58-2.99-1.29-.59-.47-.87-.28-.83.42.04.61.16,1.21.28,2.09-.91-.61-1.01-1.5-1.4-2.17-.41-.7-.68-1.47-1.07-2.18-.41-.75-.39.12-.59.18-.35-1.18.26-2.18.55-3.41,1.65,1.74,3.41,3.11,5.15,4.51.6.48.9,1.08.89,1.85Z" style="fill:#97cef9; stroke-width:0px;"/><path d="m553.24,217.57c.93-.8,1.7-1.79,2.78-2.42.42-.25.94-.51,1.3-.07.32.39-.07.81-.34,1.13-1.26,1.47-2.29,3.15-3.89,4.33-.92.68-1.09.24-1.2-.56.28-.69.56-1.38.84-2.07,0,0-.11-.05-.11-.05.38.29.44-.15.63-.29Z" style="fill:#f7fefe; stroke-width:0px;"/><path d="m492.72,150.17c.86,2.49,1.09,2.63,3.6,2.27.27-.04.55.05.82.08-.36.78-1.2,1.01-1.78,1.54-.66.6-1.43,1.09-1.71,2.2-1.49-1.6-1.9-3.32-1.72-5.22.04-.41.27-.8.78-.87Z" style="fill:#d56d97; stroke-width:0px;"/><path d="m510,166.85c-2.25,2.73-4.56,5.42-6.41,8.45-.05-.08-.12-.13-.21-.16.75-3.52,2.92-6.08,5.61-8.29.29-.24.68-.69,1.01,0Z" style="fill:#f7fefe; stroke-width:0px;"/><path d="m496.69,130.71c-.19,1.31-1.35,2.01-1.93,3.07-.22.4-.62.25-.84,0-.51-.6-1.13-1.24-.7-2.11.55-1.11,1.33-2.06,2.24-2.9.26.75,1.17,1.08,1.23,1.95Z" style="fill:#1080ce; stroke-width:0px;"/><path d="m500.11,41.39c1.66-.41,3.19-1.39,5-1.21.61.06,1.22.04,1.64.6-.4.38-.92.42-1.43.51-1.68.3-3.26.85-4.66,1.87-.34.25-.65.55-1.13.45-.23-.85.15-1.54.57-2.22Z" style="fill:#1080ce; stroke-width:0px;"/><path d="m510.18,50.78c-.35-.06-.7-.18-.75-.56-.56-3.98-3.01-5.95-6.84-6.47,2-1.1,4.05-.65,5.46,1.36,1.19,1.69,1.98,3.57,2.13,5.67Z" style="fill:#97cef9; stroke-width:0px;"/><path d="m494.04,208.28c1.24.26,2.17-.56,3.23-.92-.08,1.02-.63,1.92-.75,2.95-.05.41.13,1.44-.87,1.3-.96-.13-1.91-.44-1.97-1.64-.02-.56-.29-1.24.35-1.68Z" style="fill:#d56d97; stroke-width:0px;"/><path d="m496.27,146.35c-1.24-.76-1.91-2.34-1.53-3.62,1.62-.64,2.97.02,4.25.93.03.64-.47.86-.91.83-1.45-.11-1.28.56-.79,1.46-.34.13-.68.27-1.02.4Z" style="fill:#f7fefe; stroke-width:0px;"/><path d="m604.4,98.26c.17.38.35.76.52,1.14-1.22,2.33-2.74,4.45-4.52,6.38-.71-.03-.7-.46-.37-.85,1.72-2.05,2.82-4.51,4.37-6.67Z" style="fill:#0ad3fc; stroke-width:0px;"/><path d="m504.58,35.15c-1.21,1.4-2.42,2.79-3.63,4.19-.07.08-.14.15-.21.23,0,0-.07.07-.07.06-.08.07-.17.14-.25.21,0,0-.04.03-.04.03-.06-.04-.13-.06-.2-.06.37-1.62,1.12-3.08,1.93-4.5.69-1.21,1.63-.41,2.48-.17Z" style="fill:#f7fefe; stroke-width:0px;"/><path d="m526.98,126.41c-.57,1.65-1.15,3.29-1.72,4.94-.12-.02-.24-.01-.3-.06-2.13-1.78-1.87-1.45-.14-3.23.62-.64,1.21-1.3,1.81-1.95.12.1.23.2.35.31Z" style="fill:#1080ce; stroke-width:0px;"/><path d="m611.77,31.59c-.26-.06-.4-.2-.44-.48-.5-3.24-1.36-6.35-3.44-8.99-.08-.1-.06-.27-.08-.41.26-.08.53-.13.65-.41,2.25,3.06,3.33,6.5,3.31,10.29Z" style="fill:#97cef9; stroke-width:0px;"/><path d="m525.15,173.84c2.42-3.71,6.25-6.08,9.46-5.71-3.64,1.11-6.48,3.38-9.11,5.98-.11-.09-.23-.18-.34-.27Z" style="fill:#d56d97; stroke-width:0px;"/><path d="m496.69,127.82c1.38-1.18,2.92-1.5,4.64-.84-.9.06-2.19-.25-1.43,1.45-.57.4-1.13.81-1.7,1.21-.7-.44-.97-1.24-1.51-1.82Z" style="fill:#f7fefe; stroke-width:0px;"/><path d="m498.86,151.89c.94-1.93,2.94-2.17,4.64-2.88.53.68.62,1.4-.3,1.68-1.43.43-2.82,1.07-4.34,1.2Z" style="fill:#d56d97; stroke-width:0px;"/><path d="m591.23,217.46c.26.51.52.5,1.1.31.76-.25,1.47-.98,2.4-.55-2.22,1.1-4.51,1.95-6.98,2.29-.04-.19-.08-.37-.12-.55,1.36-.11,2.39-1.02,3.59-1.5Z" style="fill:#97cef9; stroke-width:0px;"/><path d="m497.29,145.95c-.49-.89-.65-1.56.79-1.46.44.03.94-.19.91-.83.65.19,1.13.69,1.08,1.29-.05.58-.82.51-1.28.66-.48.16-.96.43-1.5.33Z" style="fill:#d56d97; stroke-width:0px;"/><path d="m661.09,170.34c.25-.07.53-.09.66-.38,1.59.83,2.59,2.23,3.58,3.64-.22.03-.44.05-.66.08-.98-1.34-2.37-2.25-3.58-3.34Z" style="fill:#97cef9; stroke-width:0px;"/><path d="m496.69,127.82c.53.58.81,1.37,1.51,1.82-.48.39-.75,1.08-1.51,1.07-.06-.87-.98-1.2-1.24-1.95.32-.44.72-.76,1.24-.94Z" style="fill:#97cef9; stroke-width:0px;"/><path d="m497.33,69.61c-.18.02-.36.04-.54.06-.61-1.46-1.15-2.94-1.49-4.48.17,0,.34-.02.52-.03.51,1.48,1.01,2.97,1.52,4.45Z" style="fill:#97cef9; stroke-width:0px;"/><path d="m503.81,134.65c.11.03.22.06.33.09-.98,1.37-1.74,2.86-2.35,4.43.18-1.73.85-3.24,2.02-4.52Z" style="fill:#97cef9; stroke-width:0px;"/><path d="m499.89,128.43c-.76-1.7.53-1.39,1.43-1.45,0,0-.03-.02-.03-.02.08.08.15.16.23.24.06.07.12.13.18.2-.36.78-1.09.89-1.81,1.03Z" style="fill:#97cef9; stroke-width:0px;"/><path d="m592.98,169.59c.18-.15.35-.29.53-.44.64.16,1.28.33,1.92.49.26.17.53.33,1.16.73-1.53-.08-2.61-.22-3.61-.78Z" style="fill:#97cef9; stroke-width:0px;"/><path d="m500.17,39.81c.07,0,.14.02.2.06-.09.51-.17,1.02-.26,1.53-.42.68-.8,1.38-.57,2.22-.02.09-.05.16-.12.23,0,0-.05-.02-.05-.02-.07-1.4.12-2.76.8-4.01Z" style="fill:#97cef9; stroke-width:0px;"/><path d="m595.25,217c.82-1.06,1.91-1.6,3.23-1.71-.94.83-2.08,1.28-3.23,1.71Z" style="fill:#97cef9; stroke-width:0px;"/><path d="m608.46,21.29c-.13.28-.4.33-.65.41,0,0-.08-.07-.08-.07.05-.18-.03-.27-.21-.26-.07-.05-.13-.12-.18-.19-.07-.08-.13-.15-.2-.23-.07-.06-.12-.14-.18-.21.01-.29.03-.59.04-.88l.05-.05c.63.34,1.11.83,1.41,1.48Z" style="fill:#f7fefe; stroke-width:0px;"/><path d="m506.24,145.03c.31.77.29,1.54.01,2.31-.44-.77-.4-1.54-.01-2.31Z" style="fill:#1080ce; stroke-width:0px;"/><path d="m509.52,52.04c.26-.02.53-.04.79-.06.19.4.23.79-.02,1.32-.29-.47-.53-.87-.77-1.26Z" style="fill:#97cef9; stroke-width:0px;"/><path d="m598.46,215.32c.1-.71.59-.72,1.13-.64-.32.32-.68.57-1.13.64Z" style="fill:#97cef9; stroke-width:0px;"/><path d="m512.11,149.82c.1.41.12.79-.33,1.01-.19-.44.01-.74.33-1.01Z" style="fill:#1080ce; stroke-width:0px;"/><path d="m520.13,79.93c.1.4-.06.62-.46.67-.02-.34.15-.56.46-.67Z" style="fill:#97cef9; stroke-width:0px;"/><path d="m510.63,173.13c-.24-.41-.26-.8.11-1.16.09.4.09.79-.11,1.16Z" style="fill:#1080ce; stroke-width:0px;"/><path d="m507.01,143.01c.05.31-.07.52-.34.66-.1-.33.04-.54.34-.66Z" style="fill:#1080ce; stroke-width:0px;"/><path d="m504.44,104.78c-.37-.26-.47-.6-.27-1.01.45.24.21.67.27,1.01Z" style="fill:#f7fefe; stroke-width:0px;"/><path d="m599.86,214.44c.06-.33.32-.35.58-.35-.19.12-.38.24-.58.35Z" style="fill:#97cef9; stroke-width:0px;"/><path d="m601.03,213.6c.04-.36.29-.38.57-.38-.19.13-.38.25-.57.38Z" style="fill:#97cef9; stroke-width:0px;"/><path d="m505.51,165.29c.15-.22.35-.22.56-.1-.11.12-.21.23-.32.35-.08-.08-.16-.17-.24-.25Z" style="fill:#f7fefe; stroke-width:0px;"/><path d="m637.12,209.06c-.06.24-.15.38-.35.08.09-.15.2-.19.35-.08Z" style="fill:#1080ce; stroke-width:0px;"/><path d="m499.37,43.82s.05.02.05.02c-.03.07-.06.15-.08.22-.04-.02-.08-.04-.12-.06.05-.06.1-.12.15-.18Z" style="fill:#1080ce; stroke-width:0px;"/><path d="m609.6,204.49c-.01-.3-.04-.61.37-.69,0,.3-.14.52-.37.69Z" style="fill:#97cef9; stroke-width:0px;"/><path d="m610.18,203.52c-.06-.28-.03-.52.31-.6-.07.22,0,.5-.31.6Z" style="fill:#97cef9; stroke-width:0px;"/><path d="m508.23,141.14c-.01.23-.11.39-.33.46,0-.24.1-.4.33-.46Z" style="fill:#1080ce; stroke-width:0px;"/><path d="m506.47,144.18c.23.19.07.27-.1.34-.1-.15-.05-.26.1-.34Z" style="fill:#1080ce; stroke-width:0px;"/><path d="m431.38,65.09c-.03.11-.05.22-.08.33-.1-.07-.21-.15-.31-.22.13-.04.26-.07.39-.11Z" style="fill:#f7fefe; stroke-width:0px;"/><path d="m507.32,142.49c-.06.1-.13.19-.19.29-.04-.16.03-.25.19-.29Z" style="fill:#1080ce; stroke-width:0px;"/><path d="m501.59,127.06c.38,0,.23.18.11.34-.06-.06-.12-.13-.18-.2.01-.05.03-.1.06-.15Z" style="fill:#97cef9; stroke-width:0px;"/><path d="m507.64,141.98c.01.1-.03.18-.13.22-.08-.14-.02-.2.13-.22Z" style="fill:#1080ce; stroke-width:0px;"/><path d="m493.84,125.71c.11-.15.21-.29.32-.44-.11.15-.21.29-.32.44Z" style="fill:#97cef9; stroke-width:0px;"/><path d="m524.95,174.15c.07-.1.14-.21.2-.31.11.09.23.18.34.27-.1.1-.19.19-.29.29-.08-.09-.17-.17-.25-.26Z" style="fill:#d56d97; stroke-width:0px;"/><path d="m525.21,174.4c-.1.07-.26.22-.3.19-.2-.15-.09-.31.04-.45.08.09.17.17.25.26Z" style="fill:#d56d97; stroke-width:0px;"/><path d="m524.62,174.9s.07-.01.08,0c.02.02.05.07.04.09-.05.12-.11.12-.16,0,0-.02.03-.06.04-.09Z" style="fill:#d56d97; stroke-width:0px;"/><path d="m509.66,198.73c-.15.25-.28.2-.39-.03.13,0,.26.02.39.03Z" style="fill:#d56d97; stroke-width:0px;"/><path d="m609.92,203.85c0-.19.08-.32.28-.36,0,.19-.09.31-.28.36Z" style="fill:#97cef9; stroke-width:0px;"/><path d="m571.77,165.34c.14-.07.28-.14.42-.22-.07.2-.22.26-.42.22Z" style="fill:#97cef9; stroke-width:0px;"/><path d="m501.08,80.57c-.23-.04-.32-.17-.3-.4.2.06.3.19.3.4Z" style="fill:#97cef9; stroke-width:0px;"/><path d="m600.71,213.84c.04-.19.16-.29.36-.29-.04.2-.17.28-.36.29Z" style="fill:#97cef9; stroke-width:0px;"/><path d="m600.41,214.1c.11-.1.22-.19.33-.29-.11.1-.22.19-.33.29Z" style="fill:#97cef9; stroke-width:0px;"/><path d="m599.58,214.69c.11-.1.21-.2.32-.3-.11.1-.21.2-.32.3Z" style="fill:#97cef9; stroke-width:0px;"/><path d="m501.59,127.06s-.05.09-.06.15c-.08-.08-.15-.16-.23-.24.1.03.2.06.3.09Z" style="fill:#f7fefe; stroke-width:0px;"/><path d="m571.39,74.65c-.27.09-.53.18-.8.27.18-.28.31-.59.54-.82,2.6-2.58,4.33-5.67,5.33-9.17,2.37-8.25.84-15.71-5.22-21.81-6.07-6.12-13.47-7.77-21.73-5.13-3.83,1.23-6.9,3.54-9.26,6.8h0c-.27.06-.38.23-.38.49l.09.07-.09-.07c-.4.2-.66.5-.69.96-.08.04-.13.1-.13.19-.33.1-.44.34-.42.66-.1.14-.19.28-.29.42-.06.11-.11.22-.17.33l-.03.04c-.32.2-.48.49-.48.87-.08.06-.12.14-.13.24-.16.05-.21.17-.17.33-.08.06-.12.14-.12.23-.05.12-.1.24-.16.35-1.16,2.13-1.44,4.51-2.01,6.81,1.43-2.66,3.31-4.79,5.8-6.55,3.75-2.63,11.4-2.25,15.96,1.46,6.42,5.22,7.69,14.27,4,20.96-1.37,1.89-2.83,3.66-4.87,4.91-1.5.91-3.2,1.09-4.79,1.67-.22.01-.44.02-.66.04-.63-.2-1.26-.14-1.89-.01-2.88-.28-5.48-1.3-7.89-2.86-2.31-2.08-4.6-4.18-5.79-7.15-5.43-13.59-.25-29.74,14.38-34.81,11.03-3.82,23.95,2.09,28.69,13.23,3.55,8.34,2.87,16.3-2.9,23.54-.85,1.07-1.97,1.93-2.96,2.89-.3.16-.61.3-.76.64Zm-25.88-14.51c2.93.08,4.77-2.13,4.7-4.03-.09-2.25-1.99-4.04-4.23-3.92-2.5.13-4.34,2.02-4.3,4.26.03,1.5,2.06,4,3.84,3.68Z" style="fill:#190639; stroke-width:0px;"/><path d="m593.58,45.94c-1.18-.08-2.37-.14-3.52-.5-.43-.13-.81-.26-1.01-.68-.05-2.86-.07-5.73.75-8.51.55-1.88,1.53-2.51,3.5-2.38,1.34.09,2.28.95,3.59,1.9-.6-2.37-2.13-3.37-3.85-4.07-.85-.34-.77-.6-.34-1.19,2.49-3.36,7-3.43,9.55-.1,1.41,1.85,1.75,3.97,1.5,6.24-.15,1.34-.82,2.53-1.06,3.84l.02-.02c-.12.11-.25.22-.37.33-1.43,2.35-3.47,3.85-6.13,4.52-.87.22-1.75.42-2.63.63Z" style="fill:#d56d97; stroke-width:0px;"/><path d="m593.58,45.94c.88-.21,1.75-.4,2.63-.63,2.66-.67,4.71-2.17,6.13-4.52.2-.03.34-.12.37-.33,0,0-.02.02-.02.02,2.52-2.34,3.42-5.31,3.15-8.64-.35-4.33-5.36-9.05-10.69-7.26-4.5,1.51-6.75,4.88-7.89,9.2-.58,2.19-.31,4.45-.3,6.68-1.35-3.75-1.14-7.49.35-11.1,1.58-3.83,4.25-6.67,8.45-7.61,4.89-1.09,8.93,1.14,11.31,5.66,3.89,7.39-.23,17.09-9.23,19.67-.59.17-1.13.46-1.76.54-1.38.18-2.44.02-2.49-1.69Z" style="fill:#1080ce; stroke-width:0px;"/><path d="m586.96,40.47c0-2.23-.27-4.5.3-6.68,1.14-4.32,3.38-7.69,7.89-9.2,5.33-1.79,10.34,2.93,10.69,7.26.27,3.33-.63,6.3-3.15,8.64.24-1.31.91-2.49,1.06-3.84.25-2.27-.09-4.39-1.5-6.24-2.55-3.33-7.06-3.26-9.55.1-.43.59-.51.84.34,1.19,1.72.7,3.25,1.7,3.85,4.07-1.31-.95-2.25-1.81-3.59-1.9-1.97-.13-2.95.49-3.5,2.38-.82,2.79-.8,5.65-.75,8.51-1.18-.19-.97-1.36-1.45-2.05.04-.11,0-.18-.1-.23-.09-.29-.18-.57-.27-.86.06-.42.04-.82-.27-1.15h0Z" style="fill:#190639; stroke-width:0px;"/><path d="m564.6,29.02c-4.44-.41-8.83-.14-13.2.85-2.86.65-5.51,1.8-8.16,2.98-.59.27-1.19.52-1.91.83,3.94-8.2,15.89-10.34,23.28-4.66h0Z" style="fill:#190639; stroke-width:0px;"/><path d="m571.39,74.65c.15-.34.47-.48.76-.64.31.79,1.01.56,1.6.58,3.78.12,7.32,1.1,10.62,2.93.44.24.97.43,1.17.98-1.29-.14-2.17-1.12-3.31-1.59-2.94-1.2-5.96-1.92-9.16-1.82-.58.02-1.27.21-1.69-.45Z" style="fill:#97cef9; stroke-width:0px;"/><path d="m590.97,16.12c2.29-.84,4.6-.83,6.93-.15-2.32-.21-4.62,0-6.93.15Z" style="fill:#97cef9; stroke-width:0px;"/><path d="m607,19.86c-.01.29-.03.59-.04.88-.73-.21-1.05-.83-1.43-1.39.6-.15.86.69,1.47.51Z" style="fill:#97cef9; stroke-width:0px;"/><path d="m592.34,85.18c-.6-.32-.96-.8-1.01-1.49.65.28.93.82,1.01,1.49Z" style="fill:#97cef9; stroke-width:0px;"/><path d="m587.26,79.67c-.67-.09-1.16-.43-1.47-1.04.68.08,1.24.33,1.47,1.04Z" style="fill:#97cef9; stroke-width:0px;"/><path d="m588.98,16.71c.46-.51,1.04-.64,1.69-.55-.48.44-1.06.58-1.69.55Z" style="fill:#97cef9; stroke-width:0px;"/><path d="m588.4,80.55c-.5,0-.79-.26-.92-.72.54-.06.81.22.92.72Z" style="fill:#97cef9; stroke-width:0px;"/><path d="m598.99,16.12c.49-.35.81-.04,1.13.29-.41.02-.82.07-1.13-.29Z" style="fill:#97cef9; stroke-width:0px;"/><path d="m601,16.72c.43-.39.63-.07.83.26-.32.04-.62.02-.83-.26Z" style="fill:#97cef9; stroke-width:0px;"/><path d="m586.96,40.47c.32.33.33.73.27,1.15-.39-.31-.34-.73-.27-1.15Z" style="fill:#1080ce; stroke-width:0px;"/><path d="m591.2,83.46c-.34-.04-.52-.23-.5-.58.33.06.52.23.5.58Z" style="fill:#97cef9; stroke-width:0px;"/><path d="m603.02,17.55c.24-.02.42.06.53.29-.25.03-.43-.04-.53-.29Z" style="fill:#97cef9; stroke-width:0px;"/><path d="m500.41,39.84c.09-.07.17-.14.25-.21,0,.17-.08.25-.25.21Z" style="fill:#97cef9; stroke-width:0px;"/><path d="m500.73,39.57c.07-.08.14-.15.21-.23.02.16-.05.24-.21.23Z" style="fill:#97cef9; stroke-width:0px;"/><polygon points="564.61 29.02 564.64 29.06 564.6 29.02 564.61 29.02" style="fill:#190639; stroke-width:0px;"/><path d="m607.51,21.37c.18,0,.26.08.21.26-.07-.09-.14-.18-.21-.26Z" style="fill:#97cef9; stroke-width:0px;"/><path d="m607.14,20.95c.07.08.13.16.2.23-.17.01-.24-.06-.2-.23Z" style="fill:#97cef9; stroke-width:0px;"/><path d="m587.5,42.49c.11.04.14.12.1.23-.22,0-.32-.04-.1-.23Z" style="fill:#1080ce; stroke-width:0px;"/><path d="m605.23,19.09c.17-.02.26.06.28.23-.09-.08-.19-.15-.28-.23Z" style="fill:#97cef9; stroke-width:0px;"/><path d="m603.79,17.97c.18-.04.27.04.27.22-.09-.07-.18-.15-.27-.22Z" style="fill:#97cef9; stroke-width:0px;"/><path d="m602.67,17.36c.11.06.22.12.33.18-.11-.06-.22-.12-.33-.18Z" style="fill:#97cef9; stroke-width:0px;"/><path d="m528.54,142.18c.41.02.84.07.82-.55,1,.93,1.34,2.22,1.79,3.48-1.01-.86-1.99-1.73-2.61-2.93Z" style="fill:#97cef9; stroke-width:0px;"/><path d="m504.4,134.57c1.5-1.58,3.36-2.41,5.5-2.65-1.83.89-3.66,1.77-5.5,2.65Z" style="fill:#97cef9; stroke-width:0px;"/><path d="m586.12,169.1c1.51-.4,3.03-.39,4.54.02-1.51.3-3.03.29-4.54-.02Z" style="fill:#97cef9; stroke-width:0px;"/><path d="m510.5,131.84c1.22-.46,2.44-.36,3.66.02-1.22.3-2.44.32-3.66-.02Z" style="fill:#97cef9; stroke-width:0px;"/><path d="m514.75,131.93c1-.04,1.87.28,2.67.86-.98-.01-1.87-.28-2.67-.86Z" style="fill:#97cef9; stroke-width:0px;"/><path d="m582.05,169.49c.91-.49,1.89-.47,2.88-.35-.95.24-1.87.63-2.88.35Z" style="fill:#97cef9; stroke-width:0px;"/><path d="m565.69,175.29c.4-.63,1.05-.86,1.72-1.06-.43.58-.96,1-1.72,1.06Z" style="fill:#97cef9; stroke-width:0px;"/><path d="m517.73,132.94c.65.07,1.22.31,1.63.85-.72.05-1.21-.33-1.63-.85Z" style="fill:#97cef9; stroke-width:0px;"/><path d="m572.17,164.02c-.57-.43-.38-1-.28-1.55.32.48.55.97.28,1.55Z" style="fill:#97cef9; stroke-width:0px;"/><path d="m567.69,174.09c.38-.56.96-.75,1.58-.85-.38.55-.95.76-1.58.85Z" style="fill:#97cef9; stroke-width:0px;"/><path d="m578.89,170.04c.43-.36.93-.44,1.46-.33-.44.33-.89.59-1.46.33Z" style="fill:#97cef9; stroke-width:0px;"/><path d="m570.92,172.53c.31-.36.69-.55,1.17-.5-.23.55-.7.52-1.17.5Z" style="fill:#97cef9; stroke-width:0px;"/><path d="m591.23,169.18c.46-.17.84,0,1.19.29-.48.26-.86.08-1.19-.29Z" style="fill:#97cef9; stroke-width:0px;"/><path d="m569.51,173.13c.28-.39.65-.59,1.14-.53-.21.54-.69.52-1.14.53Z" style="fill:#97cef9; stroke-width:0px;"/><path d="m520.18,134.34c.45.08.76.34.96.74-.47-.05-.86-.2-.96-.74Z" style="fill:#97cef9; stroke-width:0px;"/><path d="m521.29,135.2c.41.08.76.23.88.69-.37-.13-.8-.19-.88-.69Z" style="fill:#97cef9; stroke-width:0px;"/><path d="m564.84,175.86c.11-.4.43-.5.79-.53-.08.45-.36.6-.79.53Z" style="fill:#97cef9; stroke-width:0px;"/><path d="m564.01,176.48c.16-.32.4-.52.76-.58-.08.42-.34.6-.76.58Z" style="fill:#97cef9; stroke-width:0px;"/><path d="m575.78,170.83c.17-.24.39-.29.65-.17-.16.27-.34.47-.65.17Z" style="fill:#97cef9; stroke-width:0px;"/><path d="m576.93,170.54c.15-.24.36-.31.62-.2-.13.3-.29.51-.62.2Z" style="fill:#97cef9; stroke-width:0px;"/><path d="m572.87,171.79c.19-.18.39-.36.68-.28-.14.3-.35.45-.68.28Z" style="fill:#97cef9; stroke-width:0px;"/><path d="m574.59,171.22c.19-.2.39-.36.69-.26-.16.28-.37.42-.69.26Z" style="fill:#97cef9; stroke-width:0px;"/><path d="m525.9,139.37c.32.05.5.23.54.55-.31-.05-.5-.23-.54-.55Z" style="fill:#97cef9; stroke-width:0px;"/><path d="m524.75,138.23c.32.04.5.23.56.54-.32-.04-.51-.22-.56-.54Z" style="fill:#97cef9; stroke-width:0px;"/><path d="m580.95,169.65c.06-.14.14-.19.26-.05-.06.16-.14.2-.26.05Z" style="fill:#97cef9; stroke-width:0px;"/><path d="m578.1,170.22s.1-.06.16-.03c-.02.16-.08.18-.16.03Z" style="fill:#97cef9; stroke-width:0px;"/><path d="m574.1,171.37s.09-.06.15-.04c-.01.17-.06.18-.15.04Z" style="fill:#97cef9; stroke-width:0px;"/><path d="m526.75,140.25c.17,0,.25.07.25.24-.08-.08-.17-.16-.25-.24Z" style="fill:#97cef9; stroke-width:0px;"/><path d="m526.47,139.95c.17,0,.25.08.24.26-.08-.09-.16-.17-.24-.26Z" style="fill:#97cef9; stroke-width:0px;"/><path d="m525.62,139.09c.17,0,.25.08.25.25-.08-.08-.17-.17-.25-.25Z" style="fill:#97cef9; stroke-width:0px;"/><path d="m525.34,138.79c.17,0,.25.09.25.26-.08-.09-.17-.17-.25-.26Z" style="fill:#97cef9; stroke-width:0px;"/><path d="m524.46,137.95c.17,0,.26.08.26.25-.09-.08-.17-.16-.26-.25Z" style="fill:#97cef9; stroke-width:0px;"/><path d="m524.01,137.57c.07.07.15.14.22.2-.16.03-.23-.04-.22-.2Z" style="fill:#97cef9; stroke-width:0px;"/><path d="m522.2,135.91c.09.08.18.16.28.24-.09-.08-.18-.16-.28-.24Z" style="fill:#97cef9; stroke-width:0px;"/><path d="m519.8,134.1c.06,0,.1.03.13.08-.13.12-.17.09-.13-.08Z" style="fill:#97cef9; stroke-width:0px;"/><path d="m519.43,133.83c.08.06.16.11.24.17-.16.05-.24,0-.24-.17Z" style="fill:#97cef9; stroke-width:0px;"/><path d="m581.85,212.71c-.19-.05-.38-.09-.37-.35.12.12.24.23.37.35Z" style="fill:#190639; stroke-width:0px;"/><path d="m583.5,212.37s.07.03.11.05c-.03-.02-.06-.04-.09-.06,0,0-.01.01-.01.01Z" style="fill:#190639; stroke-width:0px;"/><path d="m586.72,217.42s0,.01,0,.01c0,0,0-.01,0-.01Z" style="fill:#97cef9; stroke-width:0px;"/><path d="m587.31,218.27s0,0,0,0c0,0,0,0,0,0Z" style="fill:#97cef9; stroke-width:0px;"/><path d="m540.27,44.79c2.35-3.26,5.43-5.57,9.26-6.8,8.25-2.64,15.66-.99,21.73,5.13,6.06,6.11,7.59,13.57,5.22,21.81-1,3.5-2.74,6.59-5.33,9.17-.23.23-.36.54-.54.82-2.32-.16-3.91,1.53-5.88,2.28-4.37,1.67-8.83,2.72-13.55,1.95,1.59-.57,3.3-.75,4.79-1.67,2.04-1.25,3.5-3.02,4.87-4.91.39.48.74.2,1.11-.05,1.14-.77,2.21-1.6,3.22-2.54,4.66-4.35,7.14-9.55,6.94-16.01-.19-6-3.13-10.39-8.15-13.17-6.6-3.65-13.21-2.63-19.52,1.08-1.46.86-2.78,1.93-4.17,2.91Z" style="fill:#97cef9; stroke-width:0px;"/><path d="m548.63,79.18c.63-.13,1.26-.19,1.89.01-.63.34-1.26.33-1.89-.01Z" style="fill:#97cef9; stroke-width:0px;"/><path d="m451.16,108.79c-1.88-2.4-4.01-4.59-5.75-7.1-2.04-2.94-4.1-5.88-5.58-9.14-.55-1.21-.97-.94-1.64-.2-1.06,1.16-2.14,2.3-3.24,3.43-.68.7-1.47,1.33-1.24,2.47-.46-.03-.6-.31-.71-.56-2.44-5.88-4.6-11.83-4.44-18.34.13-5.1,1.81-9.43,6.23-12.36,3.22-2.14,6.82-2.29,10.48-1.77,7.47,1.05,13.89,4.5,19.85,8.95,10.99,8.22,19.14,18.65,24.25,31.39,2.23,5.57,3.3,11.37,1.86,17.34-.84,3.5-2.78,6.2-6.3,7.6-1.21.48-2.3,1.23-3.69,1.18-.05-.49.4-.45.65-.55,2.76-1.15,4.51-3.26,5.73-5.9.14-.3.38-.64.19-.94-.25-.4-.69-.21-1.04-.14-2.07.4-4.16.48-6.25.28-.54-.17-1.1-.09-1.66-.22-3-.68-5.97-1.45-8.88-2.46-1.76-.89-3.52-1.78-5.28-2.67-2.97-1.86-5.93-3.72-8.61-5.99-1.66-1.41-3.27-2.88-4.9-4.32Zm-3.29-40.29c-1.66-.29-3.29-.84-5.01-.47-1.63-.47-3.22-.23-3.54.63-1.6,4.21-1.69,8.49-.42,12.8l.13.61c-.03.5.04.98.39,1.38.04.18.07.36.11.53-.08.18-.03.3.14.39.2.68.36,1.39.62,2.05,5.8,14.63,15.6,25.6,29.97,32.18,5.46,2.5,11.31,3.29,17.33,2.2.8-.15,1.2-.42,1.26-1.21.16-2.18.08-4.35-.42-6.49-.13-1.28-.36-2.53-.86-3.72-1.01-4.1-2.63-7.94-5.02-11.43-3.14-5.8-7.01-11.04-12-15.39-3.02-3.22-6.46-5.92-10.18-8.27-.07-.12-.11-.28-.21-.34-3.84-2.38-7.79-4.52-12.28-5.43Z" style="fill:#190639; stroke-width:0px;"/><path d="m483.95,87.46c-1.78-1.46-2.86-3.51-4.32-5.24-2.78-3.28-5.68-6.41-9.04-9.09-1.48-1.19-2.98-2.36-4.48-3.53-.63-.49-.68-.91-.06-1.49,2.16-2.01,4.3-4.05,6.43-6.1.75-.72,1.43-.67,2.29-.12,5.39,3.46,9.94,7.82,14.03,12.7,1.37,1.64,2.75,3.27,3.91,5.08-.59.05-.89.51-1.24.88-2.13,2.24-4.38,4.34-6.67,6.4-.24.22-.45.51-.83.5Z" style="fill:#97cef9; stroke-width:0px;"/><path d="m451.16,108.79c1.63,1.44,3.24,2.91,4.9,4.32,2.68,2.27,5.64,4.13,8.61,5.99-1.08,1.77-2.62,3.13-4.02,4.61-.72.76-1.31.84-2.21.23-4.12-2.75-7.96-5.85-11.63-9.18-.28-.25-.6-.5-.52-.95,1.01-1.54,2.61-2.46,3.91-3.7.4-.39.99-.61.95-1.31Z" style="fill:#97cef9; stroke-width:0px;"/><path d="m446.29,113.81c-.09.46.24.7.52.95,3.66,3.33,7.5,6.43,11.63,9.18.9.6,1.49.53,2.21-.23,1.41-1.48,2.95-2.84,4.02-4.61,1.76.89,3.52,1.78,5.28,2.67-1.76,1.24-2.9,3.08-4.39,4.59-.64.65-.34,1.16.49,1.46,2.83,1.05,5.65,2.12,8.47,3.19-.53,1.1-1.53.75-2.26.53-13.64-4.07-24.47-12.08-32.81-23.58.61-.34.82.15,1.09.43,1.5,1.54,2.97,3.09,4.48,4.62.35.36.64.87,1.27.8Z" style="fill:#f7fefe; stroke-width:0px;"/><path d="m474.51,131.01c-2.82-1.07-5.64-2.14-8.47-3.19-.82-.31-1.12-.82-.49-1.46,1.49-1.51,2.63-3.35,4.39-4.59,2.91,1.01,5.88,1.77,8.88,2.46.56.13,1.12.05,1.66.22-1.76,2.41-3.79,4.56-5.98,6.57Z" style="fill:#97cef9; stroke-width:0px;"/><path d="m489.53,99.32c.14-.25.27-.5.41-.75.97.43.97,1.46,1.3,2.24,1.22,2.88,2.14,5.85,2.47,9-1.23-3.56-2.73-7.02-4.19-10.49Z" style="fill:#97cef9; stroke-width:0px;"/><path d="m495.34,121.31c-.11.16-.22.32-.33.48.02-.23.09-.41.33-.48Z" style="fill:#0ad3fc; stroke-width:0px;"/><polygon points="578.24 148.59 578.26 148.67 578.19 148.66 578.24 148.59" style="fill:#190639; stroke-width:0px;"/><path d="m553.24,217.57c-.19.14-.24.57-.63.29-.14-.25-.07-.5.14-.6.22-.1.45,0,.48.32Z" style="fill:#190639; stroke-width:0px;"/><path d="m441.1,60.46c2.09-1.93,4.19-3.85,6.26-5.8.32-.31.84-.51.8-1.1,2.08-.3,4.16-.32,6.27.16-.14.81-.77,1.24-1.24,1.73-1.51,1.59-3.1,3.11-4.62,4.69-.51.53-1.07.82-1.78.67-1.88-.41-3.8-.14-5.7-.35Z" style="fill:#97cef9; stroke-width:0px;"/><path d="m577.89,22.07c-.1-.05-.21-.1-.31-.14.25-.24.22.08.3.16,0,0,0-.01,0-.01Z" style="fill:#190639; stroke-width:0px;"/><path d="m517.73,107.12s.08,0,.09.01c.02.03.04.09.03.12-.06.12-.12.12-.16-.02,0-.03.02-.07.03-.11Z" style="fill:#97cef9; stroke-width:0px;"/><path d="m540.27,44.79c1.39-.97,2.71-2.05,4.17-2.91,6.31-3.71,12.93-4.73,19.52-1.08,5.02,2.78,7.96,7.17,8.15,13.17.21,6.47-2.28,11.66-6.94,16.01-1.02.95-2.08,1.78-3.22,2.54-.37.25-.72.53-1.11.05,3.7-6.69,2.43-15.74-4-20.96-4.56-3.71-12.21-4.09-15.96-1.46-2.49,1.75-4.37,3.88-5.8,6.55.57-2.3.86-4.67,2.01-6.81.15-.07.22-.18.16-.35,0-.1.04-.17.12-.23.16-.06.23-.16.17-.33,0-.1.05-.18.12-.24.4-.16.57-.44.48-.87,0,0,.03-.04.03-.04.19-.04.25-.15.17-.33.1-.14.19-.28.29-.42.38-.07.48-.31.42-.66,0-.09.05-.16.13-.19.51-.12.8-.4.69-.96l.09.07s-.09-.07-.09-.07c.33,0,.41-.21.38-.49h0Z" style="fill:#f7fefe; stroke-width:0px;"/><path d="m545.52,60.14c-1.78.32-3.81-2.18-3.84-3.68-.04-2.25,1.8-4.14,4.3-4.26,2.24-.12,4.14,1.67,4.23,3.92.08,1.9-1.77,4.1-4.7,4.03Z" style="fill:#f7fefe; stroke-width:0px;"/><path d="m539.88,45.27c.11.56-.18.84-.69.96.03-.46.29-.76.69-.96Z" style="fill:#97cef9; stroke-width:0px;"/><path d="m538.15,47.88c.09.43-.08.71-.48.87,0-.38.16-.67.48-.87Z" style="fill:#97cef9; stroke-width:0px;"/><path d="m539.06,46.43c.06.34-.04.59-.42.66-.02-.32.09-.56.42-.66Z" style="fill:#97cef9; stroke-width:0px;"/><path d="m540.26,44.79c.02.28-.06.48-.38.49,0-.26.12-.43.38-.49Z" style="fill:#97cef9; stroke-width:0px;"/><path d="m538.35,47.5c.08.18.02.29-.17.33.06-.11.11-.22.17-.33Z" style="fill:#97cef9; stroke-width:0px;"/><path d="m537.26,49.54c.07.17,0,.28-.16.35.05-.12.1-.24.16-.35Z" style="fill:#97cef9; stroke-width:0px;"/><path d="m537.55,48.98c.06.17-.02.27-.17.33-.04-.16,0-.27.17-.33Z" style="fill:#97cef9; stroke-width:0px;"/><path d="m602.71,40.47c-.03.21-.17.3-.37.33.12-.11.25-.22.37-.33Z" style="fill:#190639; stroke-width:0px;"/><path d="m482.54,97.95c2.39,3.5,4.01,7.33,5.02,11.43-.63.2-1.11.64-1.37,1.19-.79,1.64-2.3,2.28-3.85,2.68-3.79.98-7.58.65-11.23-.67-8.54-3.1-15.04-8.78-20.18-16.14-1.89-2.71-3.16-5.75-4.66-8.67.06-.33.12-.67-.25-.88-.03-.09-.06-.18-.08-.28.08-.24.03-.45-.18-.6,0-.09-.02-.18-.05-.27.06-.33.07-.65-.21-.91-.01-.08-.03-.16-.06-.24.02-.41.07-.83-.25-1.16,0-.1-.01-.19-.04-.28-.02-.19-.04-.38-.06-.57-.02-.17-.03-.34-.05-.51-.21-2.63-.4-5.26.41-7.84.47-.23.78-.5.31-1.02.03-.13.07-.27.1-.4,1.13.22,2.69-.56,3.11,1.32-.06.16-.12.33-.18.49-.18,0-.37.02-.38.24,0,.09.14.19.21.28-.11,1.51.18,2.93.92,4.27,1.4,2.54,3.49,4.41,6.05,5.61,1.43.67,3.2.96,4.63-.21,1.43-1.18,1.48-2.78.99-4.46-.74-2.53-2.35-4.43-4.36-6.04,1.16-.99,2.33-.18,3.5-.02,3.73,2.35,7.16,5.06,10.18,8.27-.8-.3-1.58-.68-2.4-.89-3.64-.93-5.53.34-5.27,3.79.16,2.09,1.04,3.93,2,5.74,1.68,3.15,4.15,5.67,6.83,7.89,2.13,1.77,4.53,3.31,7.33,3.94,2.08.47,3.32-.54,3.38-2.67.02-.81.08-1.61.12-2.42Zm-27.13-1.03c.13.19.26.37.4.56-.02.16.04.25.21.27,3.17,4.38,7.13,7.82,12.05,10.12.09.05.18.09.27.14.94.38,1.88.76,2.81,1.14,1.11.68,2.3,1.03,3.63.75-1.11-.49-2.04-1.3-3.26-1.49-.28-.13-.56-.27-.85-.4-.1-.06-.19-.11-.29-.17-.49-.28-1-.55-1.48-.84-4.83-2.91-9.04-6.57-12.83-10.73-.79-1.1-1.48-2.28-2.75-2.98.47,1.35.92,2.7,2.09,3.64Z" style="fill:#0ad3fc; stroke-width:0px;"/><path d="m482.54,97.95c-.04.8-.1,1.61-.12,2.42-.07,2.13-1.3,3.14-3.38,2.67-2.81-.63-5.2-2.17-7.33-3.94-2.68-2.23-5.15-4.75-6.83-7.89-.96-1.81-1.85-3.65-2-5.74-.26-3.45,1.63-4.72,5.27-3.79.82.21,1.6.59,2.4.89,5,4.36,8.87,9.59,12,15.4Z" style="fill:#f7fefe; stroke-width:0px;"/><path d="m445.05,82.07c.02.17.03.34.05.51-.22.22-.21.41.06.57.02.09.03.19.04.28-.07.42-.14.84.25,1.16.03.08.05.16.06.24-.1.34-.08.66.21.91.02.09.04.18.05.27-.07.24-.01.44.18.6.02.09.05.18.08.28-.02.32.02.63.25.88,1.49,2.92,2.77,5.96,4.66,8.67,5.14,7.37,11.64,13.05,20.18,16.14,3.65,1.32,7.44,1.65,11.23.67,1.56-.4,3.07-1.04,3.85-2.68.26-.55.74-.99,1.37-1.19.5,1.19.73,2.45.86,3.72-.57,1.73-1.89,2.69-3.49,3.3-4.74,1.81-9.41,1.1-13.94-.71-12.54-4.99-21.29-13.97-26.99-26.06-1.1-2.34-2.25-4.69-2.52-7.33-.09-.86-.19-1.71-.28-2.57.31-.4.31-.8-.04-1.18,0-.76-.02-1.52-.03-2.28.34-.28.33-.57.02-.87.01-.18.02-.36.03-.55.59-.69.56-1.59.77-2.4.09-.32.05-.66.49-.75,1.53-.3,2.6.54,2.42,2.14-.26,2.27-.36,4.54-.26,6.82.02.49-.19,1.08.44,1.39Z" style="fill:#f7fefe; stroke-width:0px;"/><path d="m441.47,82.31c.27,2.64,1.42,4.99,2.52,7.33,5.7,12.08,14.45,21.06,26.99,26.06,4.53,1.8,9.2,2.51,13.94.71,1.6-.61,2.92-1.57,3.49-3.3.49,2.14.58,4.31.42,6.49-.06.79-.46,1.07-1.26,1.21-6.02,1.09-11.87.3-17.33-2.2-14.37-6.58-24.17-17.56-29.97-32.18-.26-.66-.42-1.36-.62-2.05-.05-.13-.09-.26-.14-.39-.04-.18-.07-.36-.11-.53.35-.59.75-1.2-.39-1.38-.04-.2-.08-.41-.13-.61.96-.54,1.87-.95,2.22.64.02.09.23.14.35.2Z" style="fill:#0ad3fc; stroke-width:0px;"/><path d="m441.47,82.31c-.12-.07-.33-.11-.35-.2-.35-1.59-1.27-1.18-2.22-.64-1.27-4.31-1.18-8.59.42-12.8.33-.86,1.91-1.1,3.54-.63-.82,2.22-1.7,4.41-1.67,6.84-.01.18-.02.36-.03.55-.13.29-.13.58-.02.87,0,.76.02,1.52.03,2.28-.11.4-.1.79.04,1.18.09.86.19,1.71.28,2.57Z" style="fill:#1080ce; stroke-width:0px;"/><path d="m460.35,74.28c-1.17-.16-2.34-.97-3.5.02-.35-.22-.7-.47-1.07-.67-2.45-1.4-5.23-2.11-6.81.5-.42-1.89-1.98-1.1-3.11-1.32.67-1.43,1.33-2.87,2-4.3,4.49.92,8.44,3.05,12.28,5.43.1.06.14.23.21.34Z" style="fill:#1080ce; stroke-width:0px;"/><path d="m447.86,68.51c-.67,1.43-1.33,2.87-2,4.3-.03.13-.07.27-.1.4-.28.29-.33.64-.31,1.02-.81,2.58-.62,5.21-.41,7.84-.63-.31-.42-.9-.44-1.39-.1-2.28,0-4.54.26-6.82.18-1.6-.89-2.44-2.42-2.14-.44.09-.41.43-.49.75-.22.81-.18,1.71-.77,2.4-.03-2.42.86-4.62,1.67-6.84,1.72-.37,3.35.17,5.01.47Z" style="fill:#97cef9; stroke-width:0px;"/><path d="m439.02,82.08c1.14.17.73.78.39,1.38-.35-.4-.42-.87-.39-1.38Z" style="fill:#1080ce; stroke-width:0px;"/><path d="m439.52,83.99c.05.13.09.26.14.39-.17-.09-.22-.22-.14-.39Z" style="fill:#1080ce; stroke-width:0px;"/><path d="m448.98,74.13c1.58-2.61,4.36-1.9,6.81-.5.37.21.71.45,1.07.67,2.01,1.61,3.62,3.51,4.36,6.04.49,1.68.44,3.28-.99,4.46-1.43,1.17-3.2.88-4.63.21-2.56-1.2-4.65-3.07-6.05-5.61-.74-1.34-1.03-2.75-.92-4.27.06-.17.11-.35.17-.52.06-.16.12-.33.18-.49Z" style="fill:#f7fefe; stroke-width:0px;"/><path d="m471.15,109.15c-.94-.38-1.88-.76-2.81-1.14-.09-.05-.18-.09-.27-.14-4.92-2.3-8.88-5.74-12.05-10.12-.07-.09-.14-.18-.21-.27-.13-.19-.26-.37-.4-.56.07-.37.29-.58.65-.65,3.79,4.16,8,7.82,12.83,10.73.49.29.99.56,1.48.84.03.17.13.23.29.17.28.13.56.27.85.4-.12.25-.24.49-.36.74Z" style="fill:#f7fefe; stroke-width:0px;"/><path d="m456.07,96.27c-.36.07-.59.29-.65.65-1.17-.94-1.62-2.28-2.09-3.64,1.26.7,1.96,1.88,2.75,2.98Z" style="fill:#97cef9; stroke-width:0px;"/><path d="m471.15,109.15c.12-.25.24-.49.36-.74,1.22.2,2.16,1.01,3.26,1.49-1.33.27-2.52-.08-3.63-.75Z" style="fill:#97cef9; stroke-width:0px;"/><path d="m445.46,74.23c-.02-.38.03-.73.31-1.02.47.52.16.79-.31,1.02Z" style="fill:#1080ce; stroke-width:0px;"/><path d="m448.8,74.62c-.06.17-.11.35-.17.52-.07-.09-.22-.19-.21-.28,0-.22.21-.23.38-.24Z" style="fill:#1080ce; stroke-width:0px;"/><path d="m445.44,84.6c-.39-.32-.32-.74-.25-1.16.32.34.27.75.25,1.16Z" style="fill:#97cef9; stroke-width:0px;"/><path d="m446.27,87.76c-.23-.25-.27-.55-.25-.88.37.21.31.54.25.88Z" style="fill:#97cef9; stroke-width:0px;"/><path d="m445.72,85.74c-.29-.25-.31-.57-.21-.91.28.25.27.57.21.91Z" style="fill:#97cef9; stroke-width:0px;"/><path d="m445.16,83.15c-.27-.16-.28-.36-.06-.57.02.19.04.38.06.57Z" style="fill:#97cef9; stroke-width:0px;"/><path d="m445.94,86.61c-.19-.16-.25-.37-.18-.6.21.16.26.36.18.6Z" style="fill:#97cef9; stroke-width:0px;"/><path d="m455.81,97.48c.07.09.14.18.21.27-.16-.02-.23-.11-.21-.27Z" style="fill:#97cef9; stroke-width:0px;"/><path d="m468.06,107.87c.09.05.18.1.27.14-.09-.05-.18-.1-.27-.14Z" style="fill:#97cef9; stroke-width:0px;"/><path d="m470.67,108.01c-.16.06-.26,0-.29-.17.1.06.19.11.29.17Z" style="fill:#97cef9; stroke-width:0px;"/><path d="m441.19,79.75c-.13-.39-.15-.78-.04-1.18.35.38.35.78.04,1.18Z" style="fill:#97cef9; stroke-width:0px;"/><path d="m441.13,76.29c-.11-.29-.11-.58.02-.87.31.3.31.59-.02.87Z" style="fill:#97cef9; stroke-width:0px;"/><path d="m2.48,134.17h21.66c2.2,0,4.1.04,5.7.12,5.01.28,8.94,1.7,11.78,4.28,2.84,2.58,4.26,6.28,4.26,11.1s-1.43,8.44-4.3,11.01c-2.87,2.58-6.78,4.02-11.74,4.32-1.54.08-3.44.12-5.7.12h-12.77v26.08H2.48v-57.03Zm21.66,22.19c1.85,0,3.31-.03,4.38-.08,2.12-.22,3.97-.86,5.54-1.92,1.57-1.06,2.49-2.62,2.77-4.69-.28-2.01-1.21-3.56-2.81-4.65-1.6-1.09-3.43-1.73-5.5-1.92-.99-.03-2.45-.04-4.38-.04h-12.77v13.31h12.77Z" style="fill:#fff; stroke-width:0px;"/><path d="m49.49,147.69h8.64v1.49c3.31-1.74,7.6-2.6,12.89-2.6v8.68h-3.6c-1.65,0-3.19.4-4.61,1.2-1.42.8-2.56,2-3.41,3.62-.85,1.61-1.28,3.57-1.28,5.89v25.25h-8.64v-43.52Z" style="fill:#fff; stroke-width:0px;"/><path d="m82.56,189.55c-3.03-1.96-5.39-4.68-7.07-8.18-1.68-3.5-2.52-7.47-2.52-11.9s.84-8.48,2.52-11.96c1.68-3.49,4.03-6.2,7.05-8.14,3.02-1.94,6.48-2.91,10.39-2.91s7.34.97,10.37,2.91,5.39,4.66,7.09,8.14c1.69,3.49,2.54,7.47,2.54,11.96s-.85,8.4-2.54,11.88c-1.69,3.49-4.06,6.21-7.09,8.18s-6.49,2.96-10.37,2.96-7.34-.98-10.37-2.93Zm16.2-7.75c1.71-1.2,3.04-2.87,3.99-5.02.95-2.15,1.43-4.59,1.43-7.31s-.47-5.26-1.41-7.44c-.94-2.18-2.26-3.86-3.97-5.06-1.71-1.2-3.66-1.8-5.87-1.8s-4.16.6-5.87,1.8c-1.71,1.2-3.04,2.89-3.99,5.06s-1.43,4.66-1.43,7.44.48,5.17,1.45,7.31c.96,2.15,2.3,3.82,4.01,5.02,1.71,1.2,3.65,1.8,5.83,1.8s4.12-.6,5.83-1.8Z" style="fill:#fff; stroke-width:0px;"/><path d="m119.76,183.52c-.03-1.05-.04-2.74-.04-5.08v-23.35h-4.34v-8.51h4.34v-12.4h8.64v12.4h7.15v8.51h-7.15v23.64c.03,1.52.35,2.6.97,3.27.62.66,1.73.99,3.33.99.85,0,1.87-.08,3.06-.25v8.22c-2.87.41-5.22.62-7.07.62-5.65,0-8.61-2.69-8.89-8.06Z" style="fill:#fff; stroke-width:0px;"/><path d="m147.75,189.55c-3.03-1.96-5.39-4.68-7.07-8.18-1.68-3.5-2.52-7.47-2.52-11.9s.84-8.48,2.52-11.96c1.68-3.49,4.03-6.2,7.05-8.14,3.02-1.94,6.48-2.91,10.39-2.91s7.34.97,10.37,2.91,5.39,4.66,7.09,8.14c1.69,3.49,2.54,7.47,2.54,11.96s-.85,8.4-2.54,11.88c-1.69,3.49-4.06,6.21-7.09,8.18s-6.49,2.96-10.37,2.96-7.34-.98-10.37-2.93Zm16.2-7.75c1.71-1.2,3.04-2.87,3.99-5.02.95-2.15,1.43-4.59,1.43-7.31s-.47-5.26-1.41-7.44c-.94-2.18-2.26-3.86-3.97-5.06-1.71-1.2-3.66-1.8-5.87-1.8s-4.16.6-5.87,1.8c-1.71,1.2-3.04,2.89-3.99,5.06s-1.43,4.66-1.43,7.44.48,5.17,1.45,7.31c.96,2.15,2.3,3.82,4.01,5.02,1.71,1.2,3.65,1.8,5.83,1.8s4.12-.6,5.83-1.8Z" style="fill:#fff; stroke-width:0px;"/><path d="m181.05,153.51c-.73-.74-1.1-1.62-1.1-2.63,0-1.06.36-1.95,1.08-2.65.72-.7,1.58-1.06,2.59-1.06,1.06,0,1.95.35,2.65,1.06.7.71,1.06,1.59,1.06,2.65s-.36,1.92-1.08,2.65c-.72.73-1.6,1.1-2.63,1.1-.98,0-1.84-.37-2.57-1.12Zm-.02,37.6c-.72-.71-1.08-1.59-1.08-2.65,0-1.01.37-1.89,1.1-2.63.73-.74,1.59-1.12,2.57-1.12,1.04,0,1.92.37,2.63,1.1.72.73,1.08,1.62,1.08,2.65s-.35,1.95-1.06,2.65c-.71.7-1.59,1.06-2.65,1.06s-1.87-.35-2.59-1.06Z" style="fill:#fff; stroke-width:0px;"/><path d="m243.46,131.68h6.63l-20.62,61.49h-6.63l20.62-61.49Z" style="fill:#fff; stroke-width:0px;"/><path d="m283.17,163.98v27h-6.25v-3.27c-1.82,1.46-3.89,2.54-6.21,3.23-2.32.69-5,1.04-8.03,1.04-5.25,0-9.24-1.1-11.99-3.29-2.75-2.19-4.12-5.36-4.12-9.5,0-3.45,1.37-6.32,4.1-8.61,2.73-2.29,6.34-3.98,10.81-5.07,4.47-1.09,9.37-1.64,14.7-1.64h.75c0-1.57-.06-3.04-.17-4.39-.41-2.1-1.52-3.78-3.31-5.05-1.79-1.27-4.13-1.9-7-1.9-1.88,0-3.68.36-5.4,1.08-1.73.72-3.21,1.84-4.45,3.35-1.24,1.52-2.02,3.42-2.32,5.71h-6.25c.25-3.04,1.2-5.8,2.86-8.3,1.66-2.5,3.84-4.47,6.56-5.92,2.72-1.45,5.72-2.17,9.01-2.17,4.91,0,8.79,1.1,11.64,3.31,2.84,2.21,4.49,5.25,4.93,9.11.11,1.35.17,3.12.17,5.3Zm-12.96,20.25c2.13-1.02,3.77-2.4,4.95-4.14,1.17-1.74,1.76-3.66,1.76-5.76v-4.31l-1.49-.04c-3.87,0-7.5.34-10.91,1.01-3.41.68-6.18,1.7-8.32,3.06-2.14,1.37-3.21,3.06-3.21,5.07s.87,3.73,2.61,4.89,4.18,1.74,7.33,1.74c2.73,0,5.16-.51,7.29-1.53Z" style="fill:#fff; stroke-width:0px;"/><path d="m290.7,189.9c-1.01-.88-1.57-2.4-1.68-4.55-.06-.99-.08-2.87-.08-5.63v-45.88h6.21v48.49c0,.72.03,1.49.08,2.32.05.36.17.54.33.54s.45-.03.85-.08c.4-.06.92-.11,1.55-.17l1.45-.17v6.09c-1.93.25-3.42.37-4.47.37-1.82,0-3.24-.44-4.24-1.33Z" style="fill:#fff; stroke-width:0px;"/><path d="m304.35,141.72c-.75-.76-1.12-1.66-1.12-2.71s.37-1.91,1.12-2.67c.75-.76,1.63-1.14,2.65-1.14s1.91.38,2.67,1.14c.76.76,1.14,1.65,1.14,2.67s-.38,1.92-1.14,2.69c-.76.77-1.65,1.16-2.67,1.16s-1.9-.38-2.65-1.14Zm-.46,4.53h6.29v44.72h-6.29v-44.72Z" style="fill:#fff; stroke-width:0px;"/><path d="m324.79,189.44c-3.02-1.96-5.37-4.69-7.04-8.2-1.67-3.5-2.51-7.5-2.51-11.97s.83-8.5,2.51-12.01c1.67-3.5,4.02-6.24,7.04-8.2,3.02-1.96,6.47-2.94,10.33-2.94,2.65,0,5.13.48,7.43,1.43,2.3.95,4.35,2.33,6.15,4.12v-17.85h6.17v57.14h-6.17v-4.27c-1.82,1.82-3.88,3.22-6.17,4.2-2.29.98-4.76,1.47-7.41,1.47-3.87,0-7.31-.98-10.33-2.94Zm17.39-5.63c2.06-1.41,3.66-3.38,4.8-5.9,1.15-2.53,1.72-5.4,1.72-8.63s-.57-6.2-1.72-8.74-2.75-4.52-4.8-5.94c-2.06-1.42-4.41-2.13-7.06-2.13s-4.96.71-7.02,2.13c-2.06,1.42-3.66,3.41-4.8,5.96-1.15,2.55-1.72,5.46-1.72,8.72s.57,6.11,1.72,8.63c1.15,2.53,2.75,4.49,4.8,5.9,2.06,1.41,4.4,2.11,7.02,2.11s5-.7,7.06-2.11Z" style="fill:#fff; stroke-width:0px;"/><path d="m396.2,163.98v27h-6.25v-3.27c-1.82,1.46-3.89,2.54-6.21,3.23-2.32.69-5,1.04-8.03,1.04-5.25,0-9.24-1.1-11.99-3.29-2.75-2.19-4.12-5.36-4.12-9.5,0-3.45,1.37-6.32,4.1-8.61,2.73-2.29,6.34-3.98,10.81-5.07,4.47-1.09,9.37-1.64,14.7-1.64h.75c0-1.57-.06-3.04-.17-4.39-.41-2.1-1.52-3.78-3.31-5.05-1.79-1.27-4.13-1.9-7-1.9-1.88,0-3.68.36-5.4,1.08-1.73.72-3.21,1.84-4.45,3.35-1.24,1.52-2.02,3.42-2.32,5.71h-6.25c.25-3.04,1.2-5.8,2.86-8.3,1.66-2.5,3.84-4.47,6.56-5.92,2.72-1.45,5.72-2.17,9.01-2.17,4.91,0,8.79,1.1,11.64,3.31,2.84,2.21,4.49,5.25,4.93,9.11.11,1.35.17,3.12.17,5.3Zm-12.96,20.25c2.13-1.02,3.77-2.4,4.95-4.14,1.17-1.74,1.76-3.66,1.76-5.76v-4.31l-1.49-.04c-3.87,0-7.5.34-10.91,1.01-3.41.68-6.18,1.7-8.32,3.06-2.14,1.37-3.21,3.06-3.21,5.07s.87,3.73,2.61,4.89,4.18,1.74,7.33,1.74c2.73,0,5.16-.51,7.29-1.53Z" style="fill:#fff; stroke-width:0px;"/><path d="m418.39,184.76v6.17c-2.07.3-4.09.46-6.05.46-4.97,0-7.63-2.39-7.99-7.16-.06-1.16-.08-2.95-.08-5.38v-26.54h-4.64v-6.05h4.64v-12.42h6.25v12.42h7.62v6.05h-7.62v26.83c0,1.96.01,3.27.04,3.93.08.86.31,1.47.68,1.84.37.37.99.56,1.84.56s2.65-.23,5.3-.7Z" style="fill:#fff; stroke-width:0px;"/><path d="m429.57,189.38c-3.01-1.97-5.35-4.71-7.02-8.22-1.67-3.5-2.51-7.48-2.51-11.93s.83-8.54,2.51-12.03c1.67-3.49,4.01-6.21,7.02-8.16,3.01-1.95,6.46-2.92,10.35-2.92s7.34.97,10.35,2.92c3.01,1.95,5.36,4.67,7.04,8.16,1.68,3.49,2.53,7.5,2.53,12.03v3.15h-33.17c.44,2.68,1.28,5.03,2.51,7.06,1.23,2.03,2.77,3.61,4.62,4.74,1.85,1.13,3.89,1.7,6.13,1.7,3.2,0,5.97-1.08,8.3-3.23,2.33-2.15,3.93-5.04,4.78-8.65h6.5c-.66,3.67-1.9,6.89-3.71,9.65s-4.08,4.9-6.81,6.42-5.76,2.28-9.07,2.28c-3.89,0-7.34-.99-10.35-2.96Zm23.69-23.08c-.3-2.73-1.06-5.15-2.26-7.25-1.2-2.1-2.75-3.73-4.66-4.89s-4.04-1.74-6.42-1.74-4.47.58-6.36,1.74c-1.89,1.16-3.44,2.79-4.66,4.89-1.22,2.1-1.99,4.51-2.32,7.25h26.67Z" style="fill:#fff; stroke-width:0px;"/><polygon points="239.41 131.5 232.78 131.5 215.56 182.86 198.33 131.5 191.71 131.5 212.25 192.74 212.16 192.99 212.33 192.99 218.79 192.99 218.96 192.99 218.87 192.74 239.41 131.5" style="fill:#fff; stroke-width:0px;"/></svg>